<?xml version="1.0" encoding="utf-8"?>
<!-- Generator: Adobe Illustrator 16.0.0, SVG Export Plug-In . SVG Version: 6.00 Build 0)  -->
<!DOCTYPE svg PUBLIC "-//W3C//DTD SVG 1.1//EN" "http://www.w3.org/Graphics/SVG/1.1/DTD/svg11.dtd">
<svg version="1.1" xmlns="http://www.w3.org/2000/svg" xmlns:xlink="http://www.w3.org/1999/xlink" x="0px" y="0px"
	 width="841.89px" height="1190.55px" viewBox="0 0 841.89 1190.55" enable-background="new 0 0 841.89 1190.55"
	 xml:space="preserve">
<g id="Layer_2">
	<polygon fill="#999999" stroke="#000000" stroke-width="7" stroke-miterlimit="10" points="56,590.747 459.738,190 770,190 
		770,898 56,898 	"/>
	<rect x="628" y="292" fill="#F0C9DF" stroke="#000000" stroke-width="5" stroke-miterlimit="10" width="130" height="108"/>
	<rect x="666" y="400" fill="#F0C9DF" stroke="#000000" stroke-width="5" stroke-miterlimit="10" width="92" height="166.992"/>
	
		<rect x="622" y="655.334" fill="#F0C9DF" stroke="#000000" stroke-width="5" stroke-miterlimit="10" width="136" height="196.666"/>
	
		<rect x="165.457" y="508.587" transform="matrix(0.706 -0.7083 0.7083 0.706 -341.4631 314.6062)" fill="#F0C9DF" stroke="#000000" stroke-width="5" stroke-miterlimit="10" width="85.407" height="119.906"/>
	
		<rect x="225.906" y="448.136" transform="matrix(0.706 -0.7083 0.7083 0.706 -280.8741 339.6439)" fill="#F0C9DF" stroke="#000000" stroke-width="5" stroke-miterlimit="10" width="85.407" height="119.906"/>
	
		<rect x="286.453" y="387.679" transform="matrix(0.706 -0.7083 0.7083 0.706 -220.2512 364.7501)" fill="#F0C9DF" stroke="#000000" stroke-width="5" stroke-miterlimit="10" width="85.407" height="119.906"/>
	
		<rect x="346.15" y="327.976" transform="matrix(0.706 -0.7083 0.7083 0.706 -160.4127 389.4753)" fill="#F0C9DF" stroke="#000000" stroke-width="5" stroke-miterlimit="10" width="85.407" height="119.906"/>
	
		<rect x="406.896" y="267.478" transform="matrix(0.706 -0.7083 0.7083 0.706 -99.703 414.7077)" fill="#F0C9DF" stroke="#000000" stroke-width="5" stroke-miterlimit="10" width="85.407" height="119.906"/>
	<polygon fill="#F9EE5B" stroke="#000000" stroke-width="2.174" stroke-miterlimit="10" points="459.962,232.109 496.087,197.61 
		599.582,197.61 599.582,262.107 545.584,313.776 	"/>
	<circle cx="499.541" cy="766.083" r="12"/>
	
		<rect x="489.808" y="398.133" transform="matrix(0.7099 0.7043 -0.7043 0.7099 463.6243 -232.9951)" fill="#85D4EB" stroke="#000000" stroke-linejoin="round" stroke-miterlimit="10" width="49.648" height="96.275"/>
	
		<rect x="525.048" y="433.082" transform="matrix(0.7099 0.7043 -0.7043 0.7099 498.463 -247.6755)" fill="#85D4EB" stroke="#000000" stroke-linejoin="round" stroke-miterlimit="10" width="49.648" height="96.275"/>
	<polygon fill="#F0C9DF" stroke="#000000" stroke-width="5" stroke-miterlimit="10" points="268,734.667 307,703 322.333,703 
		335.667,716 335.667,752 268,752 	"/>
	<polyline fill="none" stroke="#000000" stroke-width="6" stroke-miterlimit="10" points="498.54,766.082 498.54,665 318,665 
		318,703 	"/>
</g>
<g id="Lumpini">
	<polyline fill="none" stroke="#000000" stroke-width="6" stroke-miterlimit="10" points="499.087,766.082 499.087,566.992 
		413,475.097 562.084,327.431 562.084,297.988 	"/>
</g>
<g id="Crowne_5">
	<polyline fill="none" stroke="#000000" stroke-width="6" stroke-miterlimit="10" points="499.087,766.082 499.087,566.992 
		413,475.097 504.49,384.476 491.333,369.333 	"/>
</g>
<g id="Crowne_4">
	<polyline fill="none" stroke="#000000" stroke-width="6" stroke-miterlimit="10" points="499.087,766.082 499.087,566.992 
		413,475.097 443.079,445.096 429.922,429.954 	"/>
</g>
<g id="Crowne_3">
	<polyline fill="none" stroke="#000000" stroke-width="6" stroke-miterlimit="10" points="499.087,766.082 498.981,623.414 
		373.333,489.999 	"/>
</g>
<g id="Crowne_2">
	<polyline fill="none" stroke="#000000" stroke-width="6" stroke-miterlimit="10" points="499.087,766.082 498.981,623.414 
		308,551.999 	"/>
</g>
<g id="Crowne_1">
	<polyline fill="none" stroke="#000000" stroke-width="6" stroke-miterlimit="10" points="499.087,766.082 498.981,623.414 
		257.333,623.414 257.333,601.331 	"/>
</g>
<g id="wall">
	<polyline fill="none" stroke="#000000" stroke-width="5" stroke-miterlimit="10" points="268,734.667 233.6,734.667 233.6,659.041 
		220.476,641.109 	"/>
	<polyline fill="none" stroke="#000000" stroke-width="5" stroke-miterlimit="10" points="335.667,752 420.945,752 420.945,898 	"/>
	<polyline fill="none" stroke="#000000" stroke-width="5" stroke-miterlimit="10" points="492,860.667 492,836 622,836 	"/>
	<g>
		<path fill-rule="evenodd" clip-rule="evenodd" fill="#A84894" d="M510.512,460.464c0.471-1.539,0.943-3.077,1.414-4.616
			c0.379-1.245,0.777-2.483,1.131-3.736c0.402-1.425,1.842-2.773,3.502-2.775c1.411-0.002,2.823-0.006,4.234,0.008
			c1.572,0.015,3.007,1.319,3.445,2.74c0.822,2.67,1.637,5.344,2.434,8.021c0.092,0.306,0.113,0.656,0.067,0.972
			c-0.069,0.485-0.405,0.794-0.88,0.914c-0.484,0.121-0.955-0.067-1.223-0.495c-0.133-0.214-0.23-0.458-0.304-0.701
			c-0.691-2.297-1.374-4.598-2.06-6.897c-0.155-0.52-0.155-0.52-0.774-0.44c1.294,4.441,2.587,8.877,3.891,13.352
			c-1.233,0-2.408,0-3.629,0c0,0.149,0,0.273,0,0.398c0,3.134,0.001,6.269-0.002,9.403c0,0.224,0.004,0.454-0.048,0.669
			c-0.156,0.656-0.779,1.045-1.5,0.96c-0.681-0.08-1.156-0.604-1.156-1.313c-0.006-3.091-0.003-6.184-0.003-9.274
			c0-0.267,0-0.532,0-0.819c-0.262,0-0.502,0-0.796,0c0,0.132,0,0.265,0,0.398c0.001,3.124,0.004,6.247,0,9.371
			c0,0.233-0.014,0.474-0.07,0.699c-0.156,0.626-0.748,0.997-1.454,0.94c-0.637-0.051-1.142-0.543-1.201-1.175
			c-0.013-0.138-0.009-0.278-0.009-0.417c0-3.135,0-6.27,0-9.404c0-0.127,0-0.255,0-0.418c-1.195,0-2.376,0-3.619,0
			c1.291-4.477,2.567-8.904,3.844-13.331c-0.479-0.158-0.556-0.12-0.684,0.309c-0.705,2.371-1.41,4.743-2.117,7.114
			c-0.209,0.699-0.621,1.077-1.18,1.088c-0.537,0.012-0.92-0.226-1.148-0.713c-0.03-0.065-0.07-0.126-0.105-0.188
			C510.512,460.892,510.512,460.678,510.512,460.464z"/>
		<path fill-rule="evenodd" clip-rule="evenodd" fill="#A84894" d="M549.031,462.39c-0.078,0.146-0.139,0.307-0.237,0.438
			c-0.294,0.393-0.698,0.563-1.181,0.491c-0.51-0.074-0.865-0.361-1.006-0.865c-0.057-0.202-0.07-0.422-0.07-0.634
			c-0.005-2.515-0.003-5.028-0.003-7.543c0-0.126,0-0.253,0-0.399c-0.192,0-0.357,0-0.569,0c0,0.14,0,0.274,0,0.409
			c0,7.297,0,14.593-0.004,21.889c0,0.275-0.007,0.562-0.076,0.825c-0.212,0.814-0.943,1.273-1.813,1.172
			c-0.802-0.094-1.413-0.741-1.453-1.544c-0.009-0.16-0.007-0.321-0.007-0.481c0-4.162,0-8.324,0-12.485c0-0.127,0-0.255,0-0.406
			c-0.192,0-0.365,0-0.577,0c0,0.131,0,0.256,0,0.381c0,4.236-0.003,8.473,0.003,12.71c0,0.731-0.229,1.322-0.918,1.659
			c-1.135,0.556-2.363-0.176-2.418-1.435c-0.006-0.139-0.004-0.277-0.004-0.417c0-7.285,0-14.571,0-21.856c0-0.136,0-0.272,0-0.424
			c-0.201,0-0.367,0-0.583,0c0,0.126,0,0.249,0,0.373c0,2.567,0.002,5.135-0.001,7.702c-0.002,0.786-0.404,1.267-1.118,1.363
			c-0.7,0.094-1.329-0.409-1.376-1.113c-0.021-0.31-0.016-0.62-0.016-0.931c0.002-2.771-0.023-5.542,0.016-8.313
			c0.03-2.071,1.627-3.618,3.705-3.642c1.969-0.022,3.938-0.017,5.906,0.004c1.943,0.02,3.393,1.264,3.742,3.169
			c0.01,0.05,0.039,0.096,0.059,0.144C549.031,455.884,549.031,459.137,549.031,462.39z"/>
		<path fill-rule="evenodd" clip-rule="evenodd" fill="#A84894" d="M519.051,442.745c0.758,0.173,1.433,0.491,1.908,1.136
			c0.648,0.879,0.787,1.849,0.373,2.848c-0.402,0.972-1.153,1.58-2.213,1.735c-1.359,0.198-2.615-0.509-3.115-1.726
			c-0.512-1.24-0.133-2.643,0.998-3.44c0.371-0.262,0.85-0.373,1.277-0.553C518.537,442.745,518.793,442.745,519.051,442.745z"/>
		<path fill-rule="evenodd" clip-rule="evenodd" fill="#A84894" d="M542.74,442.745c0.527,0.165,1.052,0.331,1.472,0.722
			c0.858,0.8,1.178,1.78,0.874,2.902c-0.318,1.175-1.115,1.907-2.33,2.092c-1.559,0.236-2.973-0.751-3.276-2.237
			c-0.315-1.549,0.657-3.046,2.217-3.413c0.071-0.017,0.14-0.043,0.209-0.065C542.184,442.745,542.462,442.745,542.74,442.745z"/>
		<path fill-rule="evenodd" clip-rule="evenodd" fill="#A84894" d="M529.063,478.029c0-11.644,0-23.279,0-34.939
			c1.084,0,2.166,0,3.266,0c0,11.645,0,23.279,0,34.939C531.246,478.029,530.164,478.029,529.063,478.029z"/>
	</g>
</g>
<g id="Saladaeng">
	<polyline fill="none" stroke="#000000" stroke-width="6" stroke-miterlimit="10" points="499.087,766.082 499.087,566.992 
		631.08,566.992 631.08,490.096 662.578,490.096 	"/>
</g>
<g id="Silom">
	<polyline fill="none" stroke="#000000" stroke-width="6" stroke-miterlimit="10" points="627.75,347.5 590.75,347.5 
		590.582,434.599 631.08,434.599 631.08,566.992 499.087,566.992 499.087,766.082 	"/>
	<line fill="#F0C9DF" stroke="#000000" stroke-width="5" stroke-miterlimit="10" x1="666" y1="566.992" x2="666" y2="655.334"/>
</g>
<g id="Sathorn">
	<line fill="none" stroke="#000000" stroke-width="6" stroke-miterlimit="10" x1="499.087" y1="766.082" x2="622" y2="766.082"/>
</g>
<g id="Sign">
	<text transform="matrix(1 0 0 1 177.084 580.6587)" font-family="'CenturyGothic-Bold'" font-size="13.4349">crawne 1</text>
	<text transform="matrix(1 0 0 1 243.0806 520.2012)" font-family="'CenturyGothic-Bold'" font-size="13.4349">crawne 2</text>
	<text transform="matrix(1 0 0 1 301.8335 460.498)" font-family="'CenturyGothic-Bold'" font-size="13.4349">crawne 3</text>
	<text transform="matrix(1 0 0 1 367.8335 406.498)" font-family="'CenturyGothic-Bold'" font-size="13.4349">crawne 4</text>
	<text transform="matrix(1 0 0 1 431.834 346)" font-family="'CenturyGothic-Bold'" font-size="13.4349">crawne 5</text>
	<text transform="matrix(1 0 0 1 511.8379 249)" font-family="'CenturyGothic-Bold'" font-size="13.4349">LUmpini</text>
	<text transform="matrix(1 0 0 1 675.0059 353)" font-family="'CenturyGothic-Bold'" font-size="13.4349">silom</text>
	<text transform="matrix(1 0 0 1 693 483.4961)"><tspan x="0" y="0" font-family="'CenturyGothic-Bold'" font-size="13.4349">SAla -</tspan><tspan x="0" y="16.122" font-family="'CenturyGothic-Bold'" font-size="13.4349">daeng</tspan></text>
	<text transform="matrix(1 0 0 1 660 766.083)" font-family="'CenturyGothic-Bold'" font-size="13.4349">SAthorn</text>
	<rect x="498.346" y="790" width="103.052" height="33"/>
	<text transform="matrix(1 0 0 1 532 810.502)" fill="#FFFFFF" font-family="'CenturyGothic-Bold'" font-size="12">lobby</text>
	<text transform="matrix(1 0 0 1 301.833 736.3301)" font-family="'CenturyGothic-Bold'" font-size="12">bar</text>
	<g>
		<path id="path3261" fill="#A84894" d="M444.68,822.59v-16.012c-0.003-1.599,1.226-2.926,2.91-2.928h16.064
			c1.63,0.002,2.912,1.311,2.91,2.928v16.029c0.005,1.696-1.299,2.893-2.893,2.892H447.59l0,0
			C445.997,825.501,444.673,824.229,444.68,822.59"/>
		<path id="path3265" fill="#A84894" d="M459.581,791.254c-0.018-2.093,3.013-2.116,3.033,0l-0.054,6.366l1.641-2.011
			c1.119-1.229,3.098,0.493,1.869,1.887l-3.95,4.709c-0.62,0.625-1.432,0.621-2.045,0l-3.951-4.727
			c-1.214-1.394,0.783-3.134,1.887-1.887l1.622,2.028L459.581,791.254"/>
		<path id="path3267" fill="#A84894" d="M448.577,801.111c-0.017,2.091,3.015,2.114,3.034,0l-0.054-6.366l1.64,1.993
			c1.121,1.242,3.1-0.479,1.888-1.869l-3.968-4.708c-0.62-0.629-1.432-0.625-2.046,0l-3.95,4.726
			c-1.214,1.391,0.784,3.131,1.887,1.869l1.622-2.011L448.577,801.111"/>
	</g>
	<g>
		<path id="path3269" fill="#999999" d="M462.791,815.73c-0.001,0.325-0.259,0.547-0.547,0.546c0,0-3.536,0.001-3.545,0
			c-0.274,0.001-0.535-0.224-0.529-0.546v-3.845c-0.006-0.446,0.348-0.749,0.741-0.74c-0.01-0.009,3.138,0,3.138,0
			c0.42-0.009,0.741,0.328,0.742,0.74V815.73"/>
		<path id="path3271" fill="#999999" d="M461.927,816.135h-1.357v5.22c0.003,0.921,1.354,0.921,1.357,0V816.135"/>
		<path id="path3273" fill="#999999" d="M460.374,816.135h-1.357v5.22c0.001,0.914,1.352,0.914,1.357,0V816.135"/>
		<path id="path3275" fill="#999999" d="M460.498,810.827c0.551-0.003,1.005-0.457,1.005-1.022c0-0.554-0.454-1.008-1.005-1.005
			c-0.567-0.003-1.021,0.451-1.023,1.005C459.477,810.37,459.931,810.824,460.498,810.827"/>
		<path id="path3277" fill="#999999" d="M457.94,815.73c0,0.325-0.257,0.547-0.546,0.546c0,0-3.536,0.001-3.545,0
			c-0.274,0.001-0.535-0.224-0.529-0.546v-3.845c-0.006-0.446,0.349-0.749,0.741-0.74c-0.009-0.009,3.139,0,3.139,0
			c0.419-0.009,0.74,0.328,0.74,0.74V815.73"/>
		<path id="path3279" fill="#999999" d="M457.077,816.135h-1.357v5.22c0.004,0.921,1.354,0.921,1.357,0V816.135"/>
		<path id="path3281" fill="#999999" d="M455.524,816.135h-1.357v5.22c0.001,0.914,1.352,0.914,1.357,0V816.135"/>
		<path id="path3283" fill="#999999" d="M455.648,810.827c0.552-0.003,1.005-0.457,1.005-1.022c0-0.554-0.453-1.008-1.005-1.005
			c-0.567-0.003-1.021,0.451-1.022,1.005C454.628,810.37,455.081,810.824,455.648,810.827"/>
		<path id="path3285" fill="#999999" d="M453.092,815.73c-0.001,0.325-0.257,0.547-0.547,0.546c0,0-3.536,0.001-3.545,0
			c-0.274,0.001-0.535-0.224-0.528-0.546v-3.845c-0.007-0.446,0.348-0.749,0.741-0.74c-0.01-0.009,3.138,0,3.138,0
			c0.419-0.009,0.74,0.328,0.741,0.74V815.73"/>
		<path id="path3287" fill="#999999" d="M452.228,816.135h-1.357v5.22c0.004,0.921,1.354,0.921,1.357,0V816.135"/>
		<path id="path3289" fill="#999999" d="M450.675,816.135h-1.357v5.22c0.002,0.914,1.352,0.914,1.357,0V816.135"/>
		<path id="path3291" fill="#999999" d="M450.799,810.827c0.552-0.003,1.005-0.457,1.005-1.022c0-0.554-0.453-1.008-1.005-1.005
			c-0.567-0.003-1.021,0.451-1.022,1.005C449.778,810.37,450.231,810.824,450.799,810.827"/>
	</g>
	<g>
		<path fill="#A84894" d="M468.501,832.667h-24.667c-7.72,0-14-6.28-14-14V794c0-7.72,6.28-14,14-14h24.667c7.72,0,14,6.28,14,14
			v24.667C482.501,826.387,476.221,832.667,468.501,832.667z M443.834,784c-5.514,0-10,4.486-10,10v24.667c0,5.514,4.486,10,10,10
			h24.667c5.514,0,10-4.486,10-10V794c0-5.514-4.486-10-10-10H443.834z"/>
	</g>
	<g>
		<path fill-rule="evenodd" clip-rule="evenodd" fill="#A84894" d="M360.537,733.376c0.149-0.013,0.298-0.035,0.446-0.035
			c1.72-0.003,3.439-0.001,5.159-0.001c0.136,0,0.271,0,0.46,0c0-2.068,0-4.105,0-6.189c0.2,0,0.347,0,0.494,0
			c1.72,0,3.439-0.007,5.159,0.006c0.306,0.003,0.407-0.075,0.405-0.396c-0.016-1.782-0.008-3.563-0.008-5.346
			c0-0.147,0-0.294,0-0.484c2.055,0,4.068,0,6.117,0c0-2.047,0-4.049,0-6.111c2.044,0,4.055,0,6.1,0c0-2.065,0-4.071,0-6.077
			c3.003,0,6.008,0,9.04,0c0,1.029,0,2.059,0,3.088c-1.982,0-3.965,0-6.003,0c0,2.042,0,4.053,0,6.104c-2.057,0-4.059,0-6.098,0
			c0,2.068,0,4.096,0,6.173c-2.038,0-4.038,0-6.089,0c0,2.073,0,4.099,0,6.16c-2.055,0-4.058,0-6.113,0c0,0.184,0,0.33,0,0.477
			c0,1.758,0,3.515-0.001,5.272c0,0.149-0.018,0.299-0.028,0.448c-3.003,0-6.008,0-9.04,0
			C360.537,735.435,360.537,734.405,360.537,733.376z"/>
		<g>
			<path fill="#A84894" d="M389.5,749.661h-24.667c-7.72,0-14-6.28-14-14v-24.667c0-7.72,6.28-14,14-14H389.5c7.72,0,14,6.28,14,14
				v24.667C403.5,743.381,397.219,749.661,389.5,749.661z M364.833,700.994c-5.514,0-10,4.486-10,10v24.667c0,5.514,4.486,10,10,10
				H389.5c5.514,0,10-4.486,10-10v-24.667c0-5.514-4.486-10-10-10H364.833z"/>
		</g>
	</g>
	<g>
		<path fill-rule="evenodd" clip-rule="evenodd" fill="#A84894" d="M562.818,875.059c0.148-0.013,0.298-0.035,0.446-0.035
			c1.72-0.003,3.438-0.001,5.159-0.001c0.135,0,0.271,0,0.46,0c0-2.068,0-4.105,0-6.189c0.2,0,0.347,0,0.494,0
			c1.72,0,3.438-0.007,5.159,0.006c0.306,0.003,0.406-0.075,0.404-0.396c-0.016-1.782-0.008-3.563-0.008-5.346
			c0-0.147,0-0.294,0-0.484c2.055,0,4.068,0,6.117,0c0-2.047,0-4.049,0-6.111c2.044,0,4.055,0,6.1,0c0-2.065,0-4.071,0-6.077
			c3.004,0,6.008,0,9.039,0c0,1.029,0,2.059,0,3.088c-1.981,0-3.965,0-6.002,0c0,2.042,0,4.053,0,6.104c-2.057,0-4.059,0-6.099,0
			c0,2.068,0,4.096,0,6.173c-2.038,0-4.038,0-6.089,0c0,2.073,0,4.099,0,6.16c-2.055,0-4.059,0-6.113,0c0,0.184,0,0.33,0,0.477
			c0,1.758,0.001,3.515-0.001,5.272c0,0.149-0.019,0.299-0.028,0.448c-3.003,0-6.008,0-9.039,0
			C562.818,877.117,562.818,876.088,562.818,875.059z"/>
		<g>
			<path fill="#A84894" d="M591.781,891.344h-24.668c-7.719,0-14-6.28-14-14v-24.667c0-7.72,6.281-14,14-14h24.668
				c7.719,0,14,6.28,14,14v24.667C605.781,885.063,599.5,891.344,591.781,891.344z M567.113,842.677c-5.514,0-10,4.486-10,10v24.667
				c0,5.514,4.486,10,10,10h24.668c5.514,0,10-4.486,10-10v-24.667c0-5.514-4.486-10-10-10H567.113z"/>
		</g>
	</g>
	<g>
		<path fill-rule="evenodd" clip-rule="evenodd" fill="#A84894" d="M675.702,238.995c0.148-0.013,0.298-0.035,0.446-0.035
			c1.72-0.003,3.438-0.001,5.159-0.001c0.135,0,0.271,0,0.46,0c0-2.068,0-4.105,0-6.189c0.2,0,0.347,0,0.494,0
			c1.72,0,3.438-0.007,5.159,0.006c0.306,0.003,0.406-0.075,0.404-0.396c-0.016-1.782-0.008-3.563-0.008-5.346
			c0-0.147,0-0.294,0-0.484c2.055,0,4.068,0,6.117,0c0-2.047,0-4.049,0-6.111c2.044,0,4.055,0,6.1,0c0-2.065,0-4.071,0-6.077
			c3.004,0,6.008,0,9.039,0c0,1.029,0,2.059,0,3.088c-1.981,0-3.965,0-6.002,0c0,2.042,0,4.053,0,6.104c-2.057,0-4.059,0-6.099,0
			c0,2.068,0,4.096,0,6.173c-2.038,0-4.038,0-6.089,0c0,2.073,0,4.099,0,6.16c-2.055,0-4.059,0-6.113,0c0,0.184,0,0.33,0,0.477
			c0,1.758,0.001,3.515-0.001,5.272c0,0.149-0.019,0.299-0.028,0.448c-3.003,0-6.008,0-9.039,0
			C675.702,241.053,675.702,240.024,675.702,238.995z"/>
		<g>
			<path fill="#A84894" d="M704.665,255.28h-24.668c-7.719,0-14-6.28-14-14v-24.667c0-7.72,6.281-14,14-14h24.668
				c7.719,0,14,6.28,14,14v24.667C718.665,249,712.384,255.28,704.665,255.28z M679.997,206.613c-5.514,0-10,4.486-10,10v24.667
				c0,5.514,4.486,10,10,10h24.668c5.514,0,10-4.486,10-10v-24.667c0-5.514-4.486-10-10-10H679.997z"/>
		</g>
	</g>
</g>
</svg>
