<?xml version="1.0" encoding="utf-8"?>
<!-- Generator: Adobe Illustrator 16.0.0, SVG Export Plug-In . SVG Version: 6.00 Build 0)  -->
<!DOCTYPE svg PUBLIC "-//W3C//DTD SVG 1.1//EN" "http://www.w3.org/Graphics/SVG/1.1/DTD/svg11.dtd">
<svg version="1.1" xmlns="http://www.w3.org/2000/svg" xmlns:xlink="http://www.w3.org/1999/xlink" x="0px" y="0px"
	 width="727.573px" height="722.667px" viewBox="0 0 727.573 722.667" enable-background="new 0 0 727.573 722.667"
	 xml:space="preserve">
<g id="Layer_2">
	<polygon fill="#999999" stroke="#000000" stroke-width="7" stroke-miterlimit="10" points="7,409.413 410.738,8.667 721,8.667 
		721,716.667 7,716.667 	"/>
	<rect x="579" y="110.667" fill="#F0C9DF" stroke="#000000" stroke-width="5" stroke-miterlimit="10" width="130" height="108"/>
	<rect x="617" y="218.667" fill="#F0C9DF" stroke="#000000" stroke-width="5" stroke-miterlimit="10" width="92" height="166.992"/>
	<rect x="573" y="474" fill="#F0C9DF" stroke="#000000" stroke-width="5" stroke-miterlimit="10" width="136" height="196.666"/>
	
		<rect x="116.457" y="327.254" transform="matrix(0.706 -0.7083 0.7083 0.706 -227.4409 226.5818)" fill="#F0C9DF" stroke="#000000" stroke-width="5" stroke-miterlimit="10" width="85.407" height="119.906"/>
	
		<rect x="176.906" y="266.803" transform="matrix(0.706 -0.7083 0.7083 0.706 -166.8519 251.6195)" fill="#F0C9DF" stroke="#000000" stroke-width="5" stroke-miterlimit="10" width="85.407" height="119.906"/>
	
		<rect x="237.453" y="206.345" transform="matrix(0.706 -0.7083 0.7083 0.706 -106.2289 276.7256)" fill="#F0C9DF" stroke="#000000" stroke-width="5" stroke-miterlimit="10" width="85.407" height="119.906"/>
	
		<rect x="297.15" y="146.642" transform="matrix(0.706 -0.7083 0.7083 0.706 -46.3904 301.4509)" fill="#F0C9DF" stroke="#000000" stroke-width="5" stroke-miterlimit="10" width="85.407" height="119.906"/>
	
		<rect x="357.896" y="86.144" transform="matrix(0.706 -0.7083 0.7083 0.706 14.3188 326.684)" fill="#F0C9DF" stroke="#000000" stroke-width="5" stroke-miterlimit="10" width="85.407" height="119.906"/>
	<polygon fill="#F9EE5B" stroke="#000000" stroke-width="2.174" stroke-miterlimit="10" points="410.962,50.775 447.087,16.277 
		550.582,16.277 550.582,80.774 496.584,132.443 	"/>
	<circle cx="450.541" cy="584.75" r="12"/>
	
		<rect x="440.808" y="216.8" transform="matrix(0.7099 0.7043 -0.7043 0.7099 321.691 -251.0918)" fill="#85D4EB" stroke="#000000" stroke-linejoin="round" stroke-miterlimit="10" width="49.648" height="96.275"/>
	
		<rect x="476.048" y="251.749" transform="matrix(0.7099 0.7043 -0.7043 0.7099 356.5298 -265.7723)" fill="#85D4EB" stroke="#000000" stroke-linejoin="round" stroke-miterlimit="10" width="49.648" height="96.275"/>
	<polygon fill="#F0C9DF" stroke="#000000" stroke-width="5" stroke-miterlimit="10" points="219,553.333 258,521.667 
		273.333,521.667 286.667,534.667 286.667,570.667 219,570.667 	"/>
	<polyline fill="none" stroke="#000000" stroke-width="6" stroke-miterlimit="10" points="449.54,584.749 449.54,483.667 
		269,483.667 269,521.667 	"/>
</g>
<g id="Lumpini">
	<polyline fill="none" stroke="#000000" stroke-width="6" stroke-miterlimit="10" points="450.087,584.749 450.087,385.659 
		364,293.763 513.084,146.097 513.084,116.655 	"/>
</g>
<g id="Crowne_5">
	<polyline fill="none" stroke="#000000" stroke-width="6" stroke-miterlimit="10" points="450.087,584.749 450.087,385.659 
		364,293.763 455.49,203.143 442.333,188 	"/>
</g>
<g id="Crowne_4">
	<polyline fill="none" stroke="#000000" stroke-width="6" stroke-miterlimit="10" points="450.087,584.749 450.087,385.659 
		364,293.763 394.079,263.763 380.922,248.62 	"/>
</g>
<g id="Crowne_3">
	<polyline fill="none" stroke="#000000" stroke-width="6" stroke-miterlimit="10" points="450.087,584.749 449.981,442.081 
		324.333,308.666 	"/>
</g>
<g id="Crowne_2">
	<polyline fill="none" stroke="#000000" stroke-width="6" stroke-miterlimit="10" points="450.087,584.749 449.981,442.081 
		259,370.666 	"/>
</g>
<g id="Crowne_1">
	<polyline fill="none" stroke="#000000" stroke-width="6" stroke-miterlimit="10" points="450.087,584.749 449.981,442.081 
		208.333,442.081 208.333,419.998 	"/>
</g>
<g id="wall">
	<polyline fill="none" stroke="#000000" stroke-width="5" stroke-miterlimit="10" points="219,553.333 184.6,553.333 184.6,477.708 
		171.476,459.776 	"/>
	<polyline fill="none" stroke="#000000" stroke-width="5" stroke-miterlimit="10" points="286.667,570.667 371.945,570.667 
		371.945,716.667 	"/>
	<polyline fill="none" stroke="#000000" stroke-width="5" stroke-miterlimit="10" points="443,679.333 443,654.667 573,654.667 	"/>
	<g>
		<path fill-rule="evenodd" clip-rule="evenodd" fill="#A84894" d="M461.512,279.131c0.471-1.539,0.943-3.077,1.414-4.616
			c0.379-1.245,0.777-2.483,1.131-3.736c0.402-1.425,1.842-2.773,3.502-2.775c1.411-0.002,2.823-0.006,4.234,0.008
			c1.572,0.015,3.007,1.319,3.445,2.74c0.822,2.67,1.637,5.344,2.434,8.021c0.092,0.306,0.113,0.656,0.067,0.972
			c-0.069,0.485-0.405,0.794-0.88,0.914c-0.484,0.121-0.955-0.067-1.223-0.495c-0.133-0.214-0.23-0.458-0.304-0.701
			c-0.691-2.297-1.374-4.598-2.06-6.897c-0.155-0.52-0.155-0.52-0.774-0.44c1.294,4.441,2.587,8.877,3.891,13.352
			c-1.233,0-2.408,0-3.629,0c0,0.149,0,0.273,0,0.398c0,3.134,0.001,6.269-0.002,9.403c0,0.224,0.004,0.454-0.048,0.669
			c-0.156,0.656-0.779,1.045-1.5,0.96c-0.681-0.08-1.156-0.604-1.156-1.313c-0.006-3.091-0.003-6.184-0.003-9.274
			c0-0.267,0-0.532,0-0.819c-0.262,0-0.502,0-0.796,0c0,0.132,0,0.265,0,0.398c0.001,3.124,0.004,6.247,0,9.371
			c0,0.233-0.014,0.474-0.07,0.699c-0.156,0.626-0.748,0.997-1.454,0.94c-0.637-0.051-1.142-0.543-1.201-1.175
			c-0.013-0.138-0.009-0.278-0.009-0.417c0-3.135,0-6.27,0-9.404c0-0.127,0-0.255,0-0.418c-1.195,0-2.376,0-3.619,0
			c1.291-4.477,2.567-8.904,3.844-13.331c-0.479-0.158-0.556-0.12-0.684,0.309c-0.705,2.371-1.41,4.743-2.117,7.114
			c-0.209,0.699-0.621,1.077-1.18,1.088c-0.537,0.012-0.92-0.226-1.148-0.713c-0.03-0.065-0.07-0.126-0.105-0.188
			C461.512,279.559,461.512,279.345,461.512,279.131z"/>
		<path fill-rule="evenodd" clip-rule="evenodd" fill="#A84894" d="M500.031,281.057c-0.078,0.146-0.139,0.307-0.237,0.438
			c-0.294,0.393-0.698,0.563-1.181,0.491c-0.51-0.074-0.865-0.361-1.006-0.865c-0.057-0.202-0.07-0.422-0.07-0.634
			c-0.005-2.515-0.003-5.028-0.003-7.543c0-0.126,0-0.253,0-0.399c-0.192,0-0.357,0-0.569,0c0,0.14,0,0.274,0,0.409
			c0,7.297,0,14.593-0.004,21.889c0,0.275-0.007,0.562-0.076,0.825c-0.212,0.814-0.943,1.273-1.813,1.172
			c-0.802-0.094-1.413-0.741-1.453-1.544c-0.009-0.16-0.007-0.321-0.007-0.481c0-4.162,0-8.324,0-12.485c0-0.127,0-0.255,0-0.406
			c-0.192,0-0.365,0-0.577,0c0,0.131,0,0.256,0,0.381c0,4.236-0.003,8.473,0.003,12.71c0,0.731-0.229,1.322-0.918,1.659
			c-1.135,0.556-2.363-0.176-2.418-1.435c-0.006-0.139-0.004-0.277-0.004-0.417c0-7.285,0-14.571,0-21.856c0-0.136,0-0.272,0-0.424
			c-0.201,0-0.367,0-0.583,0c0,0.126,0,0.249,0,0.373c0,2.567,0.002,5.135-0.001,7.702c-0.002,0.786-0.404,1.267-1.118,1.363
			c-0.7,0.094-1.329-0.409-1.376-1.113c-0.021-0.31-0.016-0.62-0.016-0.931c0.002-2.771-0.023-5.542,0.016-8.313
			c0.03-2.071,1.627-3.618,3.705-3.642c1.969-0.022,3.938-0.017,5.906,0.004c1.943,0.02,3.393,1.264,3.742,3.169
			c0.01,0.05,0.039,0.096,0.059,0.144C500.031,274.551,500.031,277.804,500.031,281.057z"/>
		<path fill-rule="evenodd" clip-rule="evenodd" fill="#A84894" d="M470.051,261.411c0.758,0.173,1.433,0.491,1.908,1.136
			c0.648,0.879,0.787,1.849,0.373,2.848c-0.402,0.972-1.153,1.58-2.213,1.735c-1.359,0.198-2.615-0.509-3.115-1.726
			c-0.512-1.24-0.133-2.643,0.998-3.44c0.371-0.262,0.85-0.373,1.277-0.553C469.537,261.411,469.793,261.411,470.051,261.411z"/>
		<path fill-rule="evenodd" clip-rule="evenodd" fill="#A84894" d="M493.74,261.411c0.527,0.165,1.052,0.331,1.472,0.722
			c0.858,0.8,1.178,1.78,0.874,2.902c-0.318,1.175-1.115,1.907-2.33,2.092c-1.559,0.236-2.973-0.751-3.276-2.237
			c-0.315-1.549,0.657-3.046,2.217-3.413c0.071-0.017,0.14-0.043,0.209-0.065C493.184,261.411,493.462,261.411,493.74,261.411z"/>
		<path fill-rule="evenodd" clip-rule="evenodd" fill="#A84894" d="M480.063,296.695c0-11.644,0-23.279,0-34.939
			c1.084,0,2.166,0,3.266,0c0,11.645,0,23.279,0,34.939C482.246,296.695,481.164,296.695,480.063,296.695z"/>
	</g>
</g>
<g id="Saladaeng">
	<polyline fill="none" stroke="#000000" stroke-width="6" stroke-miterlimit="10" points="450.087,584.749 450.087,385.659 
		582.08,385.659 582.08,308.763 613.578,308.763 	"/>
</g>
<g id="Silom">
	<polyline fill="none" stroke="#000000" stroke-width="6" stroke-miterlimit="10" points="578.75,166.167 541.75,166.167 
		541.582,253.266 582.08,253.266 582.08,385.659 450.087,385.659 450.087,584.749 	"/>
	<line fill="#F0C9DF" stroke="#000000" stroke-width="5" stroke-miterlimit="10" x1="617" y1="385.659" x2="617" y2="474"/>
</g>
<g id="Sathorn">
	<line fill="none" stroke="#000000" stroke-width="6" stroke-miterlimit="10" x1="450.087" y1="584.749" x2="573" y2="584.749"/>
</g>
<g id="Sign">
	<g>
		<path d="M138.055,391.371l-1.285,1.225c-0.874-0.924-1.857-1.386-2.949-1.386c-0.922,0-1.699,0.315-2.33,0.946
			s-0.947,1.407-0.947,2.331c0,0.644,0.14,1.215,0.419,1.714s0.675,0.891,1.187,1.175s1.079,0.427,1.704,0.427
			c0.533,0,1.02-0.1,1.461-0.299s0.926-0.562,1.455-1.086l1.245,1.299c-0.713,0.696-1.386,1.178-2.021,1.447
			c-0.634,0.269-1.358,0.403-2.171,0.403c-1.5,0-2.728-0.476-3.684-1.427s-1.434-2.17-1.434-3.657c0-0.962,0.218-1.817,0.653-2.565
			s1.059-1.349,1.87-1.804c0.811-0.455,1.685-0.682,2.621-0.682c0.796,0,1.563,0.168,2.299,0.504S137.521,390.751,138.055,391.371z"
			/>
		<path d="M139.787,389.675h1.946c1.066,0,1.825,0.095,2.277,0.286c0.452,0.19,0.816,0.506,1.091,0.948
			c0.275,0.442,0.413,0.964,0.413,1.568c0,0.634-0.152,1.165-0.456,1.591c-0.304,0.426-0.762,0.749-1.374,0.968l2.286,4.29h-2.008
			l-2.17-4.087h-0.168v4.087h-1.837V389.675z M141.624,393.447h0.576c0.584,0,0.986-0.077,1.207-0.23
			c0.22-0.154,0.33-0.408,0.33-0.764c0-0.21-0.055-0.394-0.164-0.549c-0.109-0.156-0.255-0.268-0.438-0.336
			s-0.519-0.102-1.007-0.102h-0.503V393.447z"/>
		<path d="M150.399,389.675h1.863l3.711,9.65h-1.909l-0.755-1.988h-3.938l-0.785,1.988h-1.909L150.399,389.675z M151.342,392.234
			l-1.294,3.313h2.582L151.342,392.234z"/>
		<path d="M156.663,389.675h1.807l1.394,6.16l1.723-6.16h1.527l1.749,6.16l1.381-6.16h1.807l-2.174,9.65h-1.762l-1.778-6.239
			l-1.745,6.239h-1.745L156.663,389.675z"/>
		<path d="M169.49,389.675h1.762l4.129,6.35v-6.35h1.837v9.65h-1.767l-4.124-6.331v6.331h-1.837V389.675z"/>
		<path d="M179.429,389.675h5.268v1.797h-3.444v1.745h3.444v1.765h-3.444v2.539h3.444v1.804h-5.268V389.675z"/>
		<path d="M191.277,389.675h2.749v9.65h-1.824v-7.924h-1.988L191.277,389.675z"/>
	</g>
	<g>
		<path d="M204.052,330.914l-1.285,1.225c-0.874-0.924-1.857-1.386-2.949-1.386c-0.922,0-1.699,0.315-2.33,0.946
			s-0.947,1.407-0.947,2.331c0,0.644,0.14,1.215,0.419,1.714s0.675,0.891,1.187,1.175s1.079,0.427,1.704,0.427
			c0.533,0,1.02-0.1,1.461-0.299s0.926-0.562,1.455-1.086l1.245,1.299c-0.713,0.696-1.386,1.178-2.021,1.447
			c-0.634,0.269-1.358,0.403-2.171,0.403c-1.5,0-2.728-0.476-3.684-1.427s-1.434-2.17-1.434-3.657c0-0.962,0.218-1.817,0.653-2.565
			s1.059-1.349,1.87-1.804c0.811-0.455,1.685-0.682,2.621-0.682c0.796,0,1.563,0.168,2.299,0.504S203.518,330.294,204.052,330.914z"
			/>
		<path d="M205.783,329.218h1.946c1.066,0,1.825,0.095,2.277,0.286c0.452,0.19,0.816,0.506,1.091,0.948
			c0.275,0.442,0.413,0.964,0.413,1.568c0,0.634-0.152,1.165-0.456,1.591c-0.304,0.426-0.762,0.749-1.374,0.968l2.286,4.29h-2.008
			l-2.17-4.087h-0.168v4.087h-1.837V329.218z M207.62,332.99h0.576c0.584,0,0.986-0.077,1.207-0.23
			c0.22-0.154,0.33-0.408,0.33-0.764c0-0.21-0.055-0.394-0.164-0.549c-0.109-0.156-0.255-0.268-0.438-0.336
			s-0.519-0.102-1.007-0.102h-0.503V332.99z"/>
		<path d="M216.396,329.218h1.863l3.711,9.65h-1.909l-0.755-1.988h-3.938l-0.785,1.988h-1.909L216.396,329.218z M217.339,331.776
			l-1.294,3.313h2.582L217.339,331.776z"/>
		<path d="M222.659,329.218h1.807l1.394,6.16l1.723-6.16h1.527l1.749,6.16l1.381-6.16h1.807l-2.174,9.65h-1.762l-1.778-6.239
			l-1.745,6.239h-1.745L222.659,329.218z"/>
		<path d="M235.487,329.218h1.762l4.129,6.35v-6.35h1.837v9.65h-1.767l-4.124-6.331v6.331h-1.837V329.218z"/>
		<path d="M245.425,329.218h5.268v1.797h-3.444v1.745h3.444v1.765h-3.444v2.539h3.444v1.804h-5.268V329.218z"/>
		<path d="M257.404,332.327h-1.791c0.048-1.041,0.375-1.859,0.98-2.457c0.605-0.597,1.383-0.896,2.332-0.896
			c0.586,0,1.103,0.124,1.552,0.371c0.448,0.247,0.807,0.604,1.076,1.069s0.403,0.939,0.403,1.42c0,0.573-0.163,1.189-0.489,1.85
			c-0.326,0.661-0.922,1.441-1.789,2.342l-1.083,1.141h3.439v1.699h-6.685v-0.879l2.985-3.044c0.722-0.73,1.202-1.317,1.44-1.761
			s0.357-0.845,0.357-1.204c0-0.372-0.124-0.679-0.371-0.921s-0.565-0.364-0.955-0.364c-0.394,0-0.722,0.146-0.984,0.439
			S257.422,331.825,257.404,332.327z"/>
	</g>
	<g>
		<path d="M262.805,271.21l-1.285,1.225c-0.874-0.924-1.857-1.386-2.949-1.386c-0.922,0-1.699,0.315-2.33,0.946
			s-0.947,1.407-0.947,2.331c0,0.644,0.14,1.215,0.419,1.714s0.675,0.891,1.187,1.175s1.079,0.427,1.704,0.427
			c0.533,0,1.02-0.1,1.461-0.299s0.926-0.562,1.455-1.086l1.245,1.299c-0.713,0.696-1.386,1.178-2.021,1.447
			c-0.634,0.269-1.358,0.403-2.171,0.403c-1.5,0-2.728-0.476-3.684-1.427s-1.434-2.17-1.434-3.657c0-0.962,0.218-1.817,0.653-2.565
			s1.059-1.349,1.87-1.804c0.811-0.455,1.685-0.682,2.621-0.682c0.796,0,1.563,0.168,2.299,0.504S262.271,270.591,262.805,271.21z"
			/>
		<path d="M264.536,269.515h1.946c1.066,0,1.825,0.095,2.277,0.286c0.452,0.19,0.816,0.506,1.091,0.948
			c0.275,0.442,0.413,0.964,0.413,1.568c0,0.634-0.152,1.165-0.456,1.591c-0.304,0.426-0.762,0.749-1.374,0.968l2.286,4.29h-2.008
			l-2.17-4.087h-0.168v4.087h-1.837V269.515z M266.373,273.287h0.576c0.584,0,0.986-0.077,1.207-0.23
			c0.22-0.154,0.33-0.408,0.33-0.764c0-0.21-0.055-0.394-0.164-0.549c-0.109-0.156-0.255-0.268-0.438-0.336
			s-0.519-0.102-1.007-0.102h-0.503V273.287z"/>
		<path d="M275.149,269.515h1.863l3.711,9.65h-1.909l-0.755-1.988h-3.938l-0.785,1.988h-1.909L275.149,269.515z M276.092,272.073
			l-1.294,3.313h2.582L276.092,272.073z"/>
		<path d="M281.412,269.515h1.807l1.394,6.16l1.723-6.16h1.527l1.749,6.16l1.381-6.16h1.807l-2.174,9.65h-1.762l-1.778-6.239
			l-1.745,6.239h-1.745L281.412,269.515z"/>
		<path d="M294.24,269.515h1.762l4.129,6.35v-6.35h1.837v9.65h-1.767l-4.124-6.331v6.331h-1.837V269.515z"/>
		<path d="M304.178,269.515h5.268v1.797h-3.444v1.745h3.444v1.765h-3.444v2.539h3.444v1.804h-5.268V269.515z"/>
		<path d="M316.367,271.896h-1.765c0.092-0.713,0.348-1.286,0.768-1.719c0.586-0.604,1.323-0.905,2.211-0.905
			c0.792,0,1.455,0.251,1.991,0.754s0.804,1.1,0.804,1.791c0,0.429-0.117,0.82-0.351,1.174c-0.234,0.354-0.574,0.641-1.02,0.859
			c0.586,0.175,1.044,0.48,1.375,0.915c0.33,0.435,0.495,0.948,0.495,1.538c0,0.866-0.319,1.6-0.958,2.201
			c-0.638,0.601-1.452,0.902-2.44,0.902c-0.936,0-1.699-0.283-2.29-0.85s-0.914-1.337-0.971-2.313h1.817
			c0.079,0.499,0.252,0.87,0.521,1.112s0.609,0.364,1.02,0.364c0.429,0,0.784-0.138,1.066-0.413c0.282-0.275,0.423-0.612,0.423-1.01
			c0-0.438-0.19-0.807-0.571-1.109s-0.929-0.457-1.646-0.465v-1.575c0.441-0.035,0.771-0.104,0.987-0.207
			c0.216-0.103,0.385-0.244,0.505-0.423c0.121-0.179,0.181-0.369,0.181-0.57c0-0.263-0.092-0.48-0.275-0.653
			c-0.184-0.173-0.424-0.259-0.722-0.259c-0.263,0-0.501,0.08-0.715,0.24S316.446,271.643,316.367,271.896z"/>
	</g>
	<g>
		<path d="M328.805,217.21l-1.285,1.225c-0.874-0.924-1.857-1.386-2.949-1.386c-0.922,0-1.699,0.315-2.33,0.946
			s-0.947,1.407-0.947,2.331c0,0.644,0.14,1.215,0.419,1.714s0.675,0.891,1.187,1.175s1.079,0.427,1.704,0.427
			c0.533,0,1.02-0.1,1.461-0.299s0.926-0.562,1.455-1.086l1.245,1.299c-0.713,0.696-1.386,1.178-2.021,1.447
			c-0.634,0.269-1.358,0.403-2.171,0.403c-1.5,0-2.728-0.476-3.684-1.427s-1.434-2.17-1.434-3.657c0-0.962,0.218-1.817,0.653-2.565
			s1.059-1.349,1.87-1.804c0.811-0.455,1.685-0.682,2.621-0.682c0.796,0,1.563,0.168,2.299,0.504S328.271,216.591,328.805,217.21z"
			/>
		<path d="M330.536,215.515h1.946c1.066,0,1.825,0.095,2.277,0.286c0.452,0.19,0.816,0.506,1.091,0.948
			c0.275,0.442,0.413,0.964,0.413,1.568c0,0.634-0.152,1.165-0.456,1.591c-0.304,0.426-0.762,0.749-1.374,0.968l2.286,4.29h-2.008
			l-2.17-4.087h-0.168v4.087h-1.837V215.515z M332.373,219.287h0.576c0.584,0,0.986-0.077,1.207-0.23
			c0.22-0.154,0.33-0.408,0.33-0.764c0-0.21-0.055-0.394-0.164-0.549c-0.109-0.156-0.255-0.268-0.438-0.336
			s-0.519-0.102-1.007-0.102h-0.503V219.287z"/>
		<path d="M341.149,215.515h1.863l3.711,9.65h-1.909l-0.755-1.988h-3.938l-0.785,1.988h-1.909L341.149,215.515z M342.092,218.073
			l-1.294,3.313h2.582L342.092,218.073z"/>
		<path d="M347.412,215.515h1.807l1.394,6.16l1.723-6.16h1.527l1.749,6.16l1.381-6.16h1.807l-2.174,9.65h-1.762l-1.778-6.239
			l-1.745,6.239h-1.745L347.412,215.515z"/>
		<path d="M360.24,215.515h1.762l4.129,6.35v-6.35h1.837v9.65h-1.767l-4.124-6.331v6.331h-1.837V215.515z"/>
		<path d="M370.178,215.515h5.268v1.797h-3.444v1.745h3.444v1.765h-3.444v2.539h3.444v1.804h-5.268V215.515z"/>
		<path d="M384.27,215.272h1.83v6.212h0.859v1.699H386.1v1.981h-1.797v-1.981h-4.212v-1.699L384.27,215.272z M384.303,221.484
			v-3.234l-2.205,3.234H384.303z"/>
	</g>
	<g>
		<path d="M392.805,156.712l-1.285,1.225c-0.873-0.924-1.856-1.386-2.949-1.386c-0.922,0-1.698,0.315-2.33,0.946
			c-0.631,0.63-0.947,1.407-0.947,2.331c0,0.644,0.141,1.215,0.42,1.714s0.676,0.891,1.187,1.175s1.079,0.427,1.704,0.427
			c0.533,0,1.02-0.1,1.461-0.299s0.927-0.562,1.455-1.086l1.246,1.299c-0.713,0.696-1.387,1.178-2.021,1.447
			c-0.633,0.269-1.357,0.403-2.17,0.403c-1.501,0-2.729-0.476-3.684-1.427c-0.956-0.951-1.434-2.17-1.434-3.657
			c0-0.962,0.217-1.817,0.652-2.565s1.059-1.349,1.869-1.804c0.812-0.455,1.686-0.682,2.621-0.682c0.796,0,1.563,0.168,2.299,0.504
			C391.636,155.615,392.271,156.093,392.805,156.712z"/>
		<path d="M394.536,155.017h1.946c1.066,0,1.824,0.095,2.277,0.286c0.451,0.19,0.815,0.506,1.09,0.948
			c0.275,0.442,0.414,0.964,0.414,1.568c0,0.634-0.152,1.165-0.457,1.591c-0.303,0.426-0.762,0.749-1.373,0.968l2.285,4.29h-2.008
			l-2.17-4.087h-0.168v4.087h-1.837V155.017z M396.373,158.789h0.576c0.584,0,0.986-0.077,1.206-0.23
			c0.22-0.154,0.33-0.408,0.33-0.764c0-0.21-0.055-0.394-0.163-0.549c-0.109-0.156-0.256-0.268-0.438-0.336
			s-0.519-0.102-1.007-0.102h-0.504V158.789z"/>
		<path d="M405.148,155.017h1.863l3.711,9.65h-1.908l-0.756-1.988h-3.938l-0.784,1.988h-1.909L405.148,155.017z M406.092,157.575
			l-1.295,3.313h2.582L406.092,157.575z"/>
		<path d="M411.412,155.017h1.807l1.395,6.16l1.723-6.16h1.527l1.749,6.16l1.381-6.16h1.808l-2.175,9.65h-1.762l-1.778-6.239
			l-1.744,6.239h-1.745L411.412,155.017z"/>
		<path d="M424.24,155.017h1.762l4.129,6.35v-6.35h1.837v9.65h-1.767l-4.125-6.331v6.331h-1.836V155.017z"/>
		<path d="M434.178,155.017h5.269v1.797h-3.444v1.745h3.444v1.765h-3.444v2.539h3.444v1.804h-5.269V155.017z"/>
		<path d="M446.059,155.017h4.52v1.699h-3.148l-0.393,1.751c0.108-0.031,0.216-0.054,0.32-0.069
			c0.105-0.015,0.206-0.023,0.303-0.023c0.874,0,1.602,0.298,2.181,0.896c0.579,0.597,0.869,1.361,0.869,2.292
			c0,0.94-0.32,1.733-0.961,2.378c-0.641,0.646-1.421,0.968-2.339,0.968c-0.822,0-1.528-0.234-2.119-0.702
			c-0.59-0.468-0.977-1.109-1.16-1.922h1.928c0.148,0.302,0.345,0.53,0.588,0.686c0.242,0.155,0.51,0.233,0.803,0.233
			c0.407,0,0.752-0.146,1.037-0.439c0.284-0.293,0.426-0.669,0.426-1.128c0-0.446-0.132-0.813-0.396-1.099
			c-0.265-0.287-0.585-0.43-0.961-0.43c-0.201,0-0.399,0.05-0.594,0.151c-0.195,0.101-0.387,0.251-0.574,0.453l-1.496-0.334
			L446.059,155.017z"/>
	</g>
	<g>
		<path d="M463.939,58.017h1.838v7.898h2.676v1.751h-4.514V58.017z"/>
		<path d="M469.785,58.017h1.844v6.24c0,0.538,0.047,0.917,0.141,1.141c0.094,0.223,0.249,0.401,0.466,0.534
			c0.216,0.133,0.478,0.2,0.784,0.2c0.323,0,0.602-0.074,0.836-0.223s0.396-0.337,0.485-0.567c0.09-0.229,0.135-0.667,0.135-1.314
			v-6.011h1.843v5.753c0,0.971-0.055,1.644-0.164,2.021c-0.109,0.376-0.318,0.739-0.626,1.089c-0.308,0.35-0.663,0.609-1.065,0.777
			s-0.871,0.252-1.404,0.252c-0.699,0-1.309-0.161-1.827-0.482c-0.519-0.322-0.889-0.724-1.112-1.207
			c-0.223-0.483-0.334-1.3-0.334-2.45V58.017z"/>
		<path d="M479.387,58.017h1.789l2.238,6.73l2.256-6.73h1.789l1.619,9.65h-1.776l-1.034-6.094l-2.051,6.094h-1.619l-2.031-6.094
			l-1.06,6.094h-1.791L479.387,58.017z"/>
		<path d="M490.534,58.017h1.948c1.054,0,1.814,0.098,2.279,0.292c0.466,0.195,0.834,0.51,1.102,0.945
			c0.27,0.435,0.404,0.957,0.404,1.564c0,0.673-0.176,1.233-0.528,1.679c-0.353,0.446-0.829,0.757-1.433,0.932
			c-0.355,0.101-1,0.151-1.936,0.151v4.087h-1.837V58.017z M492.371,61.789h0.584c0.459,0,0.777-0.033,0.957-0.099
			s0.32-0.174,0.424-0.326c0.102-0.151,0.154-0.334,0.154-0.55c0-0.373-0.145-0.645-0.434-0.816c-0.21-0.127-0.6-0.191-1.168-0.191
			h-0.518V61.789z"/>
		<path d="M497.934,58.017h1.824v9.65h-1.824V58.017z"/>
		<path d="M501.83,58.017h1.762l4.129,6.35v-6.35h1.838v9.65h-1.768l-4.124-6.331v6.331h-1.837V58.017z"/>
		<path d="M511.631,58.017h1.824v9.65h-1.824V58.017z"/>
	</g>
	<g>
		<path d="M632.172,163.329l-1.36,1.201c-0.478-0.665-0.964-0.997-1.459-0.997c-0.241,0-0.438,0.064-0.592,0.193
			s-0.229,0.274-0.229,0.436c0,0.162,0.055,0.315,0.164,0.459c0.148,0.192,0.598,0.606,1.348,1.24
			c0.7,0.586,1.125,0.956,1.274,1.109c0.372,0.376,0.636,0.736,0.792,1.079c0.155,0.343,0.232,0.718,0.232,1.125
			c0,0.792-0.273,1.445-0.82,1.961s-1.261,0.774-2.141,0.774c-0.688,0-1.286-0.168-1.797-0.505c-0.51-0.337-0.946-0.866-1.31-1.588
			l1.544-0.931c0.465,0.853,0.998,1.279,1.604,1.279c0.314,0,0.58-0.092,0.795-0.275s0.322-0.396,0.322-0.636
			c0-0.219-0.082-0.438-0.244-0.656c-0.162-0.218-0.52-0.553-1.07-1.003c-1.052-0.857-1.73-1.519-2.037-1.984
			s-0.461-0.931-0.461-1.394c0-0.669,0.256-1.243,0.766-1.722c0.51-0.479,1.14-0.718,1.889-0.718c0.48,0,0.939,0.112,1.375,0.334
			C631.191,162.332,631.664,162.738,632.172,163.329z"/>
		<path d="M633.963,162.017h1.823v9.65h-1.823V162.017z"/>
		<path d="M637.853,162.017h1.837v7.898h2.676v1.751h-4.513V162.017z"/>
		<path d="M648.319,161.774c1.365,0,2.539,0.494,3.521,1.482c0.982,0.989,1.474,2.193,1.474,3.615c0,1.408-0.484,2.6-1.454,3.575
			c-0.97,0.976-2.146,1.463-3.528,1.463c-1.448,0-2.652-0.5-3.61-1.502s-1.438-2.191-1.438-3.569c0-0.923,0.224-1.771,0.67-2.545
			c0.446-0.774,1.06-1.387,1.841-1.84S647.418,161.774,648.319,161.774z M648.299,163.571c-0.893,0-1.644,0.311-2.252,0.932
			s-0.912,1.411-0.912,2.368c0,1.067,0.383,1.911,1.148,2.532c0.596,0.485,1.278,0.728,2.049,0.728c0.871,0,1.613-0.315,2.227-0.944
			c0.613-0.63,0.919-1.406,0.919-2.329c0-0.918-0.309-1.696-0.926-2.332S649.184,163.571,648.299,163.571z"/>
		<path d="M655.982,162.017h1.789l2.238,6.73l2.256-6.73h1.789l1.619,9.65h-1.776l-1.034-6.094l-2.051,6.094h-1.619l-2.031-6.094
			l-1.06,6.094h-1.791L655.982,162.017z"/>
	</g>
	<g>
		<path d="M650.166,293.825l-1.36,1.201c-0.478-0.665-0.964-0.997-1.459-0.997c-0.241,0-0.438,0.064-0.592,0.193
			s-0.229,0.274-0.229,0.436c0,0.162,0.055,0.315,0.164,0.459c0.148,0.192,0.598,0.606,1.348,1.24
			c0.7,0.586,1.125,0.956,1.274,1.109c0.372,0.376,0.636,0.736,0.792,1.079c0.155,0.343,0.232,0.718,0.232,1.125
			c0,0.792-0.273,1.445-0.82,1.961s-1.261,0.774-2.141,0.774c-0.688,0-1.286-0.168-1.797-0.505c-0.51-0.337-0.946-0.866-1.31-1.588
			l1.544-0.931c0.465,0.853,0.998,1.279,1.604,1.279c0.314,0,0.58-0.092,0.795-0.275s0.322-0.396,0.322-0.636
			c0-0.219-0.082-0.438-0.244-0.656c-0.162-0.218-0.52-0.553-1.07-1.003c-1.052-0.857-1.73-1.519-2.037-1.984
			s-0.461-0.931-0.461-1.394c0-0.669,0.256-1.243,0.766-1.722c0.51-0.479,1.14-0.718,1.889-0.718c0.48,0,0.939,0.112,1.375,0.334
			C649.186,292.828,649.658,293.234,650.166,293.825z"/>
		<path d="M655.031,292.513h1.863l3.711,9.65h-1.908l-0.756-1.988h-3.938l-0.784,1.988h-1.909L655.031,292.513z M655.975,295.071
			l-1.295,3.313h2.582L655.975,295.071z"/>
		<path d="M662.026,292.513h1.837v7.898h2.676v1.751h-4.513V292.513z"/>
		<path d="M670.881,292.513h1.863l3.711,9.65h-1.908l-0.756-1.988h-3.938l-0.785,1.988h-1.908L670.881,292.513z M671.824,295.071
			l-1.295,3.313h2.582L671.824,295.071z"/>
		<path d="M681.688,297.774h3.332v1.667h-3.332V297.774z"/>
		<path d="M645.107,308.635h2.177c1.403,0,2.444,0.174,3.126,0.521s1.244,0.913,1.686,1.696c0.441,0.783,0.662,1.697,0.662,2.742
			c0,0.744-0.124,1.427-0.371,2.05c-0.247,0.624-0.588,1.141-1.022,1.552s-0.905,0.695-1.413,0.853
			c-0.506,0.158-1.385,0.236-2.635,0.236h-2.209V308.635z M646.932,310.406v6.087h0.854c0.84,0,1.448-0.096,1.826-0.289
			c0.379-0.193,0.688-0.517,0.929-0.972c0.24-0.455,0.36-1.016,0.36-1.681c0-1.024-0.286-1.819-0.859-2.384
			c-0.516-0.508-1.345-0.762-2.486-0.762H646.932z"/>
		<path d="M657.453,308.635h1.862l3.712,9.65h-1.909l-0.755-1.988h-3.938l-0.785,1.988h-1.909L657.453,308.635z M658.396,311.193
			l-1.294,3.313h2.581L658.396,311.193z"/>
		<path d="M664.453,308.635h5.268v1.797h-3.443v1.745h3.443v1.765h-3.443v2.539h3.443v1.804h-5.268V308.635z"/>
		<path d="M671.439,308.635h1.763l4.129,6.35v-6.35h1.837v9.65H677.4l-4.123-6.331v6.331h-1.838V308.635z"/>
		<path d="M690.28,310.209l-1.294,1.279c-0.818-0.866-1.772-1.299-2.862-1.299c-0.95,0-1.745,0.315-2.387,0.945
			s-0.962,1.395-0.962,2.296c0,0.932,0.333,1.721,0.998,2.368c0.666,0.647,1.486,0.971,2.463,0.971c0.635,0,1.17-0.134,1.605-0.4
			s0.787-0.685,1.055-1.253h-2.795v-1.725h4.854l0.014,0.407c0,0.844-0.219,1.644-0.656,2.401c-0.438,0.756-1.004,1.334-1.699,1.732
			c-0.695,0.397-1.51,0.597-2.446,0.597c-1.001,0-1.896-0.218-2.68-0.653c-0.785-0.435-1.406-1.055-1.863-1.859
			s-0.686-1.673-0.686-2.604c0-1.277,0.423-2.388,1.267-3.333c1.001-1.124,2.305-1.686,3.909-1.686c0.84,0,1.625,0.155,2.355,0.466
			C689.086,309.12,689.689,309.571,690.28,310.209z"/>
	</g>
	<g>
		<path d="M617.166,576.412l-1.36,1.2c-0.478-0.664-0.964-0.996-1.459-0.996c-0.241,0-0.438,0.064-0.592,0.193
			s-0.229,0.273-0.229,0.436s0.055,0.314,0.164,0.459c0.148,0.193,0.598,0.606,1.348,1.24c0.7,0.586,1.125,0.955,1.274,1.109
			c0.372,0.375,0.636,0.735,0.792,1.078c0.155,0.344,0.232,0.719,0.232,1.125c0,0.792-0.273,1.445-0.82,1.962
			s-1.261,0.774-2.141,0.774c-0.688,0-1.286-0.169-1.797-0.506c-0.51-0.336-0.946-0.865-1.31-1.588l1.544-0.931
			c0.465,0.853,0.998,1.278,1.604,1.278c0.314,0,0.58-0.092,0.795-0.275s0.322-0.395,0.322-0.636c0-0.219-0.082-0.438-0.244-0.656
			c-0.162-0.218-0.52-0.553-1.07-1.003c-1.052-0.857-1.73-1.52-2.037-1.984c-0.307-0.467-0.461-0.932-0.461-1.395
			c0-0.669,0.256-1.243,0.766-1.723c0.51-0.479,1.14-0.718,1.889-0.718c0.48,0,0.939,0.112,1.375,0.335
			S616.658,575.821,617.166,576.412z"/>
		<path d="M622.031,575.1h1.863l3.711,9.649h-1.908l-0.756-1.987h-3.938l-0.784,1.987h-1.909L622.031,575.1z M622.975,577.659
			l-1.295,3.313h2.582L622.975,577.659z"/>
		<path d="M628.075,575.1h5.333v1.811h-1.758v7.839h-1.863v-7.839h-1.712V575.1z"/>
		<path d="M634.662,575.1h1.862v3.641h3.222V575.1h1.855v9.649h-1.855v-4.231h-3.222v4.231h-1.862V575.1z"/>
		<path d="M648.362,574.857c1.365,0,2.539,0.494,3.521,1.482c0.982,0.989,1.474,2.193,1.474,3.614c0,1.408-0.484,2.601-1.454,3.576
			c-0.97,0.975-2.146,1.463-3.528,1.463c-1.448,0-2.652-0.501-3.61-1.502c-0.958-1.002-1.438-2.191-1.438-3.569
			c0-0.923,0.224-1.771,0.67-2.546c0.446-0.773,1.06-1.387,1.841-1.84C646.619,575.083,647.461,574.857,648.362,574.857z
			 M648.342,576.655c-0.893,0-1.644,0.311-2.252,0.932s-0.912,1.41-0.912,2.367c0,1.068,0.383,1.912,1.148,2.533
			c0.596,0.484,1.278,0.728,2.049,0.728c0.871,0,1.613-0.315,2.227-0.944c0.613-0.63,0.919-1.406,0.919-2.329
			c0-0.919-0.309-1.696-0.926-2.332S649.227,576.655,648.342,576.655z"/>
		<path d="M655.214,575.1h1.946c1.066,0,1.824,0.095,2.277,0.285c0.451,0.189,0.815,0.506,1.09,0.947
			c0.275,0.442,0.414,0.965,0.414,1.568c0,0.635-0.152,1.164-0.457,1.591c-0.303,0.427-0.762,0.749-1.373,0.968l2.285,4.29h-2.008
			l-2.17-4.087h-0.168v4.087h-1.837V575.1z M657.051,578.872h0.576c0.584,0,0.986-0.076,1.206-0.23
			c0.22-0.153,0.33-0.408,0.33-0.764c0-0.21-0.055-0.393-0.163-0.549c-0.109-0.156-0.256-0.268-0.438-0.336
			s-0.519-0.102-1.007-0.102h-0.504V578.872z"/>
		<path d="M662.889,575.1h1.762l4.129,6.35v-6.35h1.838v9.649h-1.768l-4.124-6.331v6.331h-1.837V575.1z"/>
	</g>
	<rect x="449.346" y="608.667" width="103.052" height="33"/>
	<g>
		<path fill="#FFFFFF" d="M483.984,620.549h1.641v7.055h2.391v1.564h-4.031V620.549z"/>
		<path fill="#FFFFFF" d="M493.333,620.333c1.22,0,2.268,0.441,3.146,1.324s1.316,1.959,1.316,3.229
			c0,1.258-0.433,2.322-1.299,3.193s-1.916,1.307-3.151,1.307c-1.294,0-2.369-0.447-3.225-1.342
			c-0.856-0.895-1.284-1.957-1.284-3.188c0-0.824,0.199-1.582,0.598-2.273c0.399-0.691,0.947-1.238,1.645-1.643
			C491.776,620.536,492.527,620.333,493.333,620.333z M493.315,621.938c-0.798,0-1.469,0.277-2.012,0.832
			c-0.544,0.555-0.815,1.26-0.815,2.115c0,0.953,0.342,1.707,1.026,2.262c0.532,0.434,1.142,0.65,1.83,0.65
			c0.778,0,1.44-0.281,1.988-0.844s0.821-1.256,0.821-2.08c0-0.82-0.275-1.514-0.827-2.082S494.105,621.938,493.315,621.938z"/>
		<path fill="#FFFFFF" d="M499.342,629.168v-8.619h1.355c0.786,0,1.36,0.051,1.725,0.152c0.516,0.137,0.927,0.391,1.231,0.762
			c0.306,0.371,0.458,0.809,0.458,1.313c0,0.328-0.069,0.627-0.208,0.895s-0.364,0.518-0.677,0.752
			c0.523,0.246,0.906,0.555,1.148,0.924s0.363,0.805,0.363,1.309c0,0.484-0.125,0.926-0.375,1.324
			c-0.251,0.398-0.573,0.697-0.969,0.895c-0.395,0.197-0.94,0.295-1.636,0.295H499.342z M500.982,622.114v1.816h0.358
			c0.4,0,0.697-0.084,0.892-0.252s0.291-0.396,0.291-0.686c0-0.27-0.092-0.482-0.276-0.641s-0.465-0.238-0.841-0.238H500.982z
			 M500.982,625.395v2.209h0.411c0.682,0,1.141-0.086,1.378-0.258s0.355-0.422,0.355-0.75c0-0.371-0.139-0.664-0.417-0.879
			s-0.74-0.322-1.387-0.322H500.982z"/>
		<path fill="#FFFFFF" d="M506.303,629.168v-8.619h1.355c0.786,0,1.36,0.051,1.725,0.152c0.516,0.137,0.927,0.391,1.231,0.762
			c0.306,0.371,0.458,0.809,0.458,1.313c0,0.328-0.069,0.627-0.208,0.895s-0.364,0.518-0.677,0.752
			c0.523,0.246,0.906,0.555,1.148,0.924s0.363,0.805,0.363,1.309c0,0.484-0.125,0.926-0.375,1.324
			c-0.251,0.398-0.573,0.697-0.969,0.895c-0.395,0.197-0.94,0.295-1.636,0.295H506.303z M507.943,622.114v1.816h0.358
			c0.4,0,0.697-0.084,0.892-0.252s0.291-0.396,0.291-0.686c0-0.27-0.092-0.482-0.276-0.641s-0.465-0.238-0.841-0.238H507.943z
			 M507.943,625.395v2.209h0.411c0.682,0,1.141-0.086,1.378-0.258s0.355-0.422,0.355-0.75c0-0.371-0.139-0.664-0.417-0.879
			s-0.74-0.322-1.387-0.322H507.943z"/>
		<path fill="#FFFFFF" d="M512.651,620.549h1.762l1.607,3.102l1.601-3.102h1.739l-2.522,4.887v3.732h-1.652v-3.732L512.651,620.549z
			"/>
	</g>
	<g>
		<path d="M253.817,554.997v-8.619h1.355c0.786,0,1.361,0.051,1.725,0.152c0.516,0.137,0.927,0.391,1.232,0.762
			s0.458,0.809,0.458,1.313c0,0.328-0.069,0.626-0.208,0.894s-0.364,0.519-0.677,0.753c0.523,0.246,0.906,0.554,1.148,0.923
			s0.363,0.806,0.363,1.31c0,0.484-0.125,0.926-0.375,1.324s-0.573,0.696-0.968,0.894s-0.94,0.296-1.637,0.296H253.817z
			 M255.458,547.942v1.816h0.359c0.4,0,0.697-0.084,0.891-0.252c0.194-0.168,0.291-0.396,0.291-0.686
			c0-0.27-0.092-0.483-0.276-0.642c-0.185-0.158-0.465-0.237-0.841-0.237H255.458z M255.458,551.223v2.209h0.411
			c0.682,0,1.141-0.086,1.378-0.258s0.355-0.422,0.355-0.75c0-0.371-0.139-0.664-0.417-0.879c-0.278-0.215-0.741-0.322-1.387-0.322
			H255.458z"/>
		<path d="M263.408,546.377h1.664l3.315,8.619h-1.705l-0.674-1.775h-3.517l-0.701,1.775h-1.705L263.408,546.377z M264.25,548.663
			l-1.156,2.959h2.306L264.25,548.663z"/>
		<path d="M269.767,546.377h1.738c0.952,0,1.63,0.085,2.034,0.255s0.729,0.452,0.975,0.847c0.246,0.395,0.369,0.861,0.369,1.4
			c0,0.566-0.136,1.04-0.407,1.421s-0.681,0.669-1.228,0.864l2.042,3.832h-1.793l-1.938-3.65h-0.15v3.65h-1.641V546.377z
			 M271.407,549.747h0.514c0.521,0,0.881-0.068,1.078-0.206c0.197-0.137,0.295-0.364,0.295-0.682c0-0.188-0.049-0.352-0.146-0.491
			c-0.098-0.139-0.228-0.238-0.392-0.3c-0.164-0.061-0.463-0.091-0.899-0.091h-0.45V549.747z"/>
	</g>
	<g>
		<path id="path3261" fill="#A84894" d="M395.68,641.256v-16.012c-0.003-1.599,1.226-2.926,2.91-2.928h16.064
			c1.63,0.002,2.912,1.311,2.91,2.928v16.029c0.005,1.696-1.299,2.893-2.893,2.892H398.59l0,0
			C396.997,644.167,395.673,642.896,395.68,641.256"/>
		<path id="path3265" fill="#A84894" d="M410.581,609.92c-0.018-2.093,3.013-2.116,3.033,0l-0.054,6.366l1.641-2.011
			c1.119-1.229,3.098,0.493,1.869,1.887l-3.95,4.709c-0.62,0.625-1.432,0.621-2.045,0l-3.951-4.727
			c-1.214-1.394,0.783-3.134,1.887-1.887l1.622,2.028L410.581,609.92"/>
		<path id="path3267" fill="#A84894" d="M399.577,619.778c-0.017,2.091,3.015,2.114,3.034,0l-0.054-6.366l1.64,1.993
			c1.121,1.242,3.1-0.479,1.888-1.869l-3.968-4.708c-0.62-0.629-1.432-0.625-2.046,0l-3.95,4.726
			c-1.214,1.391,0.784,3.131,1.887,1.869l1.622-2.011L399.577,619.778"/>
	</g>
	<g>
		<path id="path3269" fill="#999999" d="M413.791,634.397c-0.001,0.325-0.259,0.547-0.547,0.546c0,0-3.536,0.001-3.545,0
			c-0.274,0.001-0.535-0.224-0.529-0.546v-3.845c-0.006-0.446,0.348-0.749,0.741-0.74c-0.01-0.009,3.138,0,3.138,0
			c0.42-0.009,0.741,0.328,0.742,0.74V634.397"/>
		<path id="path3271" fill="#999999" d="M412.927,634.801h-1.357v5.22c0.003,0.921,1.354,0.921,1.357,0V634.801"/>
		<path id="path3273" fill="#999999" d="M411.374,634.801h-1.357v5.22c0.001,0.914,1.352,0.914,1.357,0V634.801"/>
		<path id="path3275" fill="#999999" d="M411.498,629.494c0.551-0.003,1.005-0.457,1.005-1.022c0-0.554-0.454-1.008-1.005-1.005
			c-0.567-0.003-1.021,0.451-1.023,1.005C410.477,629.037,410.931,629.491,411.498,629.494"/>
		<path id="path3277" fill="#999999" d="M408.94,634.397c0,0.325-0.257,0.547-0.546,0.546c0,0-3.536,0.001-3.545,0
			c-0.274,0.001-0.535-0.224-0.529-0.546v-3.845c-0.006-0.446,0.349-0.749,0.741-0.74c-0.009-0.009,3.139,0,3.139,0
			c0.419-0.009,0.74,0.328,0.74,0.74V634.397"/>
		<path id="path3279" fill="#999999" d="M408.077,634.801h-1.357v5.22c0.004,0.921,1.354,0.921,1.357,0V634.801"/>
		<path id="path3281" fill="#999999" d="M406.524,634.801h-1.357v5.22c0.001,0.914,1.352,0.914,1.357,0V634.801"/>
		<path id="path3283" fill="#999999" d="M406.648,629.494c0.552-0.003,1.005-0.457,1.005-1.022c0-0.554-0.453-1.008-1.005-1.005
			c-0.567-0.003-1.021,0.451-1.022,1.005C405.628,629.037,406.081,629.491,406.648,629.494"/>
		<path id="path3285" fill="#999999" d="M404.092,634.397c-0.001,0.325-0.257,0.547-0.547,0.546c0,0-3.536,0.001-3.545,0
			c-0.274,0.001-0.535-0.224-0.528-0.546v-3.845c-0.007-0.446,0.348-0.749,0.741-0.74c-0.01-0.009,3.138,0,3.138,0
			c0.419-0.009,0.74,0.328,0.741,0.74V634.397"/>
		<path id="path3287" fill="#999999" d="M403.228,634.801h-1.357v5.22c0.004,0.921,1.354,0.921,1.357,0V634.801"/>
		<path id="path3289" fill="#999999" d="M401.675,634.801h-1.357v5.22c0.002,0.914,1.352,0.914,1.357,0V634.801"/>
		<path id="path3291" fill="#999999" d="M401.799,629.494c0.552-0.003,1.005-0.457,1.005-1.022c0-0.554-0.453-1.008-1.005-1.005
			c-0.567-0.003-1.021,0.451-1.022,1.005C400.778,629.037,401.231,629.491,401.799,629.494"/>
	</g>
	<g>
		<path fill="#A84894" d="M419.501,651.333h-24.667c-7.72,0-14-6.28-14-14v-24.667c0-7.72,6.28-14,14-14h24.667
			c7.72,0,14,6.28,14,14v24.667C433.501,645.053,427.221,651.333,419.501,651.333z M394.834,602.667c-5.514,0-10,4.486-10,10v24.667
			c0,5.514,4.486,10,10,10h24.667c5.514,0,10-4.486,10-10v-24.667c0-5.514-4.486-10-10-10H394.834z"/>
	</g>
	<g>
		<path fill-rule="evenodd" clip-rule="evenodd" fill="#A84894" d="M311.537,552.042c0.149-0.013,0.298-0.035,0.446-0.035
			c1.72-0.003,3.439-0.001,5.159-0.001c0.136,0,0.271,0,0.46,0c0-2.068,0-4.105,0-6.189c0.2,0,0.347,0,0.494,0
			c1.72,0,3.439-0.007,5.159,0.006c0.306,0.003,0.407-0.075,0.405-0.396c-0.016-1.782-0.008-3.563-0.008-5.346
			c0-0.147,0-0.294,0-0.484c2.055,0,4.068,0,6.117,0c0-2.047,0-4.049,0-6.111c2.044,0,4.055,0,6.1,0c0-2.065,0-4.071,0-6.077
			c3.003,0,6.008,0,9.04,0c0,1.029,0,2.059,0,3.088c-1.982,0-3.965,0-6.003,0c0,2.042,0,4.053,0,6.104c-2.057,0-4.059,0-6.098,0
			c0,2.068,0,4.096,0,6.173c-2.038,0-4.038,0-6.089,0c0,2.073,0,4.099,0,6.16c-2.055,0-4.058,0-6.113,0c0,0.184,0,0.33,0,0.477
			c0,1.758,0,3.515-0.001,5.272c0,0.149-0.018,0.299-0.028,0.448c-3.003,0-6.008,0-9.04,0
			C311.537,554.101,311.537,553.072,311.537,552.042z"/>
		<g>
			<path fill="#A84894" d="M340.5,568.328h-24.667c-7.72,0-14-6.28-14-14v-24.667c0-7.72,6.28-14,14-14H340.5c7.72,0,14,6.28,14,14
				v24.667C354.5,562.047,348.219,568.328,340.5,568.328z M315.833,519.661c-5.514,0-10,4.486-10,10v24.667c0,5.514,4.486,10,10,10
				H340.5c5.514,0,10-4.486,10-10v-24.667c0-5.514-4.486-10-10-10H315.833z"/>
		</g>
	</g>
	<g>
		<path fill-rule="evenodd" clip-rule="evenodd" fill="#A84894" d="M513.818,693.725c0.148-0.013,0.298-0.035,0.446-0.035
			c1.72-0.003,3.438-0.001,5.159-0.001c0.135,0,0.271,0,0.46,0c0-2.068,0-4.105,0-6.189c0.2,0,0.347,0,0.494,0
			c1.72,0,3.438-0.007,5.159,0.006c0.306,0.003,0.406-0.075,0.404-0.396c-0.016-1.782-0.008-3.563-0.008-5.346
			c0-0.147,0-0.294,0-0.484c2.055,0,4.068,0,6.117,0c0-2.047,0-4.049,0-6.111c2.044,0,4.055,0,6.1,0c0-2.065,0-4.071,0-6.077
			c3.004,0,6.008,0,9.039,0c0,1.029,0,2.059,0,3.088c-1.981,0-3.965,0-6.002,0c0,2.042,0,4.053,0,6.104c-2.057,0-4.059,0-6.099,0
			c0,2.068,0,4.096,0,6.173c-2.038,0-4.038,0-6.089,0c0,2.073,0,4.099,0,6.16c-2.055,0-4.059,0-6.113,0c0,0.184,0,0.33,0,0.477
			c0,1.758,0.001,3.515-0.001,5.272c0,0.149-0.019,0.299-0.028,0.448c-3.003,0-6.008,0-9.039,0
			C513.818,695.784,513.818,694.754,513.818,693.725z"/>
		<g>
			<path fill="#A84894" d="M542.781,710.01h-24.668c-7.719,0-14-6.28-14-14v-24.667c0-7.72,6.281-14,14-14h24.668
				c7.719,0,14,6.28,14,14v24.667C556.781,703.73,550.5,710.01,542.781,710.01z M518.113,661.343c-5.514,0-10,4.486-10,10v24.667
				c0,5.514,4.486,10,10,10h24.668c5.514,0,10-4.486,10-10v-24.667c0-5.514-4.486-10-10-10H518.113z"/>
		</g>
	</g>
	<g>
		<path fill-rule="evenodd" clip-rule="evenodd" fill="#A84894" d="M626.702,57.661c0.148-0.013,0.298-0.035,0.446-0.035
			c1.72-0.003,3.438-0.001,5.159-0.001c0.135,0,0.271,0,0.46,0c0-2.068,0-4.105,0-6.189c0.2,0,0.347,0,0.494,0
			c1.72,0,3.438-0.007,5.159,0.006c0.306,0.003,0.406-0.075,0.404-0.396c-0.016-1.782-0.008-3.563-0.008-5.346
			c0-0.147,0-0.294,0-0.484c2.055,0,4.068,0,6.117,0c0-2.047,0-4.049,0-6.111c2.044,0,4.055,0,6.1,0c0-2.065,0-4.071,0-6.077
			c3.004,0,6.008,0,9.039,0c0,1.029,0,2.059,0,3.088c-1.981,0-3.965,0-6.002,0c0,2.042,0,4.053,0,6.104c-2.057,0-4.059,0-6.099,0
			c0,2.068,0,4.096,0,6.173c-2.038,0-4.038,0-6.089,0c0,2.073,0,4.099,0,6.16c-2.055,0-4.059,0-6.113,0c0,0.184,0,0.33,0,0.477
			c0,1.758,0.001,3.515-0.001,5.272c0,0.149-0.019,0.299-0.028,0.448c-3.003,0-6.008,0-9.039,0
			C626.702,59.72,626.702,58.69,626.702,57.661z"/>
		<g>
			<path fill="#A84894" d="M655.665,73.946h-24.668c-7.719,0-14-6.28-14-14V35.279c0-7.72,6.281-14,14-14h24.668
				c7.719,0,14,6.28,14,14v24.667C669.665,67.666,663.384,73.946,655.665,73.946z M630.997,25.279c-5.514,0-10,4.486-10,10v24.667
				c0,5.514,4.486,10,10,10h24.668c5.514,0,10-4.486,10-10V35.279c0-5.514-4.486-10-10-10H630.997z"/>
		</g>
	</g>
</g>
</svg>
