<?xml version="1.0" encoding="utf-8"?>
<!-- Generator: Adobe Illustrator 16.0.0, SVG Export Plug-In . SVG Version: 6.00 Build 0)  -->
<!DOCTYPE svg PUBLIC "-//W3C//DTD SVG 1.1//EN" "http://www.w3.org/Graphics/SVG/1.1/DTD/svg11.dtd">
<svg version="1.1" id="Layer_1" xmlns="http://www.w3.org/2000/svg" xmlns:xlink="http://www.w3.org/1999/xlink" x="0px" y="0px"
	 width="721.667px" height="715.501px" viewBox="51.945 186.275 721.667 715.501"
	 enable-background="new 51.945 186.275 721.667 715.501" xml:space="preserve">
<g id="Layer_2">
	<polygon fill="#999999" stroke="#000000" stroke-width="7" stroke-miterlimit="10" points="56,590.747 459.738,190 770.001,190 
		770.001,898 56,898 	"/>
	<rect x="628.001" y="292" fill="#F0C9DF" stroke="#000000" stroke-width="5" stroke-miterlimit="10" width="130" height="108"/>
	<rect x="666.001" y="400" fill="#F0C9DF" stroke="#000000" stroke-width="5" stroke-miterlimit="10" width="92" height="166.992"/>
	
		<rect x="622.001" y="655.333" fill="#F0C9DF" stroke="#000000" stroke-width="5" stroke-miterlimit="10" width="136" height="196.666"/>
	
		<rect x="165.489" y="508.598" transform="matrix(-0.706 0.7083 -0.7083 -0.706 757.8558 822.4709)" fill="#F0C9DF" stroke="#000000" stroke-width="5" stroke-miterlimit="10" width="85.412" height="119.913"/>
	
		<rect x="225.938" y="448.142" transform="matrix(-0.706 0.7082 -0.7082 -0.706 818.1567 676.5305)" fill="#F0C9DF" stroke="#000000" stroke-width="5" stroke-miterlimit="10" width="85.412" height="119.913"/>
	
		<rect x="286.485" y="387.68" transform="matrix(-0.706 0.7083 -0.7083 -0.706 878.6271 530.4954)" fill="#F0C9DF" stroke="#000000" stroke-width="5" stroke-miterlimit="10" width="85.412" height="119.914"/>
	
		<rect x="346.182" y="327.971" transform="matrix(-0.706 0.7083 -0.7083 -0.706 938.1789 386.3544)" fill="#F0C9DF" stroke="#000000" stroke-width="5" stroke-miterlimit="10" width="85.412" height="119.914"/>
	
		<rect x="406.927" y="267.466" transform="matrix(-0.706 0.7083 -0.7083 -0.706 998.9544 240.1159)" fill="#F0C9DF" stroke="#000000" stroke-width="5" stroke-miterlimit="10" width="85.413" height="119.913"/>
	<polygon fill="#F9EE5B" stroke="#000000" stroke-width="2.174" stroke-miterlimit="10" points="459.963,232.109 496.088,197.61 
		599.582,197.61 599.582,262.107 545.585,313.776 	"/>
	<circle cx="499.541" cy="766.083" r="12"/>
	
		<rect x="489.83" y="398.13" transform="matrix(-0.7099 -0.7043 0.7043 -0.7099 565.7028 1125.5444)" fill="#85D4EB" stroke="#000000" stroke-linejoin="round" stroke-miterlimit="10" width="49.648" height="96.275"/>
	
		<rect x="525.071" y="433.079" transform="matrix(-0.7099 -0.7043 0.7043 -0.7099 601.3472 1210.1245)" fill="#85D4EB" stroke="#000000" stroke-linejoin="round" stroke-miterlimit="10" width="49.648" height="96.275"/>
	<polygon fill="#F0C9DF" stroke="#000000" stroke-width="5" stroke-miterlimit="10" points="268,734.667 307.001,703 322.333,703 
		335.667,716 335.667,752 268,752 	"/>
	<polyline fill="none" stroke="#000000" stroke-width="6" stroke-miterlimit="10" points="498.54,766.082 498.54,665 318.001,665 
		318.001,703 	"/>
</g>
<g id="Lumpini">
	<polyline fill="none" stroke="#000000" stroke-width="6" stroke-miterlimit="10" points="499.088,766.082 499.088,566.992 
		413.001,475.097 562.085,327.431 562.085,297.988 	"/>
</g>
<g id="Crowne_5">
	<polyline fill="none" stroke="#000000" stroke-width="6" stroke-miterlimit="10" points="499.088,766.082 499.088,566.992 
		413.001,475.097 504.49,384.476 491.333,369.333 	"/>
</g>
<g id="Crowne_4">
	<polyline fill="none" stroke="#000000" stroke-width="6" stroke-miterlimit="10" points="499.088,766.082 499.088,566.992 
		413.001,475.097 443.079,445.096 429.923,429.954 	"/>
</g>
<g id="Crowne_3">
	<polyline fill="none" stroke="#000000" stroke-width="6" stroke-miterlimit="10" points="499.088,766.082 498.981,623.414 
		373.333,489.999 	"/>
</g>
<g id="Crowne_2">
	<polyline fill="none" stroke="#000000" stroke-width="6" stroke-miterlimit="10" points="499.088,766.082 498.981,623.414 
		308.001,551.999 	"/>
</g>
<g id="Crowne_1">
	<polyline fill="none" stroke="#000000" stroke-width="6" stroke-miterlimit="10" points="499.088,766.082 498.981,623.414 
		257.333,623.414 257.333,604.333 	"/>
</g>
<g id="wall">
	<polyline fill="none" stroke="#000000" stroke-width="5" stroke-miterlimit="10" points="268,734.667 233.6,734.667 233.6,659.041 
		220.476,641.109 	"/>
	<polyline fill="none" stroke="#000000" stroke-width="5" stroke-miterlimit="10" points="335.667,752 420.945,752 420.945,898 	"/>
	<polyline fill="none" stroke="#000000" stroke-width="5" stroke-miterlimit="10" points="492.001,860.667 492.001,836 622.001,836 
			"/>
	<g>
		<path fill="#A84894" d="M510.512,460.464c0.471-1.539,0.942-3.077,1.414-4.616c0.379-1.245,0.776-2.482,1.131-3.735
			c0.402-1.425,1.842-2.773,3.502-2.775c1.411-0.002,2.823-0.006,4.234,0.008c1.571,0.016,3.007,1.319,3.444,2.74
			c0.822,2.67,1.638,5.344,2.435,8.021c0.092,0.306,0.112,0.655,0.066,0.972c-0.068,0.484-0.404,0.794-0.88,0.914
			c-0.483,0.121-0.955-0.067-1.223-0.495c-0.133-0.214-0.23-0.458-0.304-0.701c-0.691-2.297-1.375-4.598-2.061-6.896
			c-0.155-0.521-0.155-0.521-0.773-0.44c1.294,4.441,2.587,8.877,3.891,13.352c-1.233,0-2.408,0-3.629,0c0,0.149,0,0.273,0,0.398
			c0,3.134,0.001,6.269-0.002,9.403c0,0.224,0.004,0.454-0.048,0.669c-0.156,0.656-0.779,1.045-1.5,0.96
			c-0.682-0.08-1.156-0.604-1.156-1.313c-0.006-3.091-0.003-6.184-0.003-9.273c0-0.268,0-0.532,0-0.819c-0.263,0-0.502,0-0.796,0
			c0,0.132,0,0.265,0,0.398c0.001,3.124,0.004,6.247,0,9.371c0,0.232-0.015,0.474-0.07,0.698c-0.156,0.626-0.748,0.997-1.454,0.94
			c-0.637-0.051-1.142-0.543-1.201-1.175c-0.013-0.139-0.009-0.278-0.009-0.417c0-3.136,0-6.271,0-9.404c0-0.127,0-0.255,0-0.418
			c-1.195,0-2.376,0-3.619,0c1.291-4.477,2.567-8.904,3.845-13.331c-0.479-0.158-0.557-0.12-0.685,0.309
			c-0.705,2.371-1.41,4.743-2.117,7.114c-0.209,0.699-0.621,1.077-1.18,1.088c-0.537,0.013-0.92-0.226-1.148-0.713
			c-0.029-0.064-0.069-0.126-0.104-0.188C510.512,460.892,510.512,460.678,510.512,460.464z"/>
		<path fill="#A84894" d="M549.031,462.39c-0.078,0.146-0.139,0.308-0.236,0.438c-0.294,0.393-0.698,0.563-1.182,0.491
			c-0.51-0.074-0.865-0.361-1.006-0.865c-0.057-0.202-0.07-0.422-0.07-0.634c-0.005-2.516-0.003-5.028-0.003-7.543
			c0-0.126,0-0.253,0-0.399c-0.191,0-0.356,0-0.568,0c0,0.14,0,0.274,0,0.409c0,7.297,0,14.593-0.004,21.889
			c0,0.275-0.008,0.563-0.076,0.825c-0.212,0.814-0.943,1.273-1.813,1.172c-0.802-0.094-1.413-0.741-1.453-1.544
			c-0.009-0.16-0.007-0.321-0.007-0.48c0-4.162,0-8.324,0-12.485c0-0.127,0-0.255,0-0.406c-0.191,0-0.365,0-0.577,0
			c0,0.131,0,0.256,0,0.381c0,4.236-0.003,8.474,0.003,12.71c0,0.731-0.229,1.322-0.918,1.659c-1.135,0.557-2.362-0.176-2.418-1.435
			c-0.006-0.14-0.004-0.277-0.004-0.417c0-7.285,0-14.571,0-21.856c0-0.136,0-0.271,0-0.424c-0.201,0-0.367,0-0.583,0
			c0,0.126,0,0.249,0,0.373c0,2.567,0.002,5.135-0.001,7.702c-0.002,0.786-0.404,1.267-1.118,1.363
			c-0.7,0.094-1.329-0.409-1.376-1.113c-0.021-0.311-0.016-0.62-0.016-0.931c0.002-2.771-0.023-5.543,0.016-8.313
			c0.03-2.071,1.627-3.618,3.705-3.642c1.969-0.022,3.938-0.018,5.906,0.004c1.943,0.02,3.393,1.264,3.742,3.169
			c0.01,0.05,0.039,0.096,0.059,0.144C549.031,455.884,549.031,459.137,549.031,462.39z"/>
		<path fill="#A84894" d="M519.052,442.745c0.758,0.173,1.433,0.491,1.908,1.136c0.647,0.879,0.786,1.85,0.373,2.848
			c-0.402,0.973-1.153,1.58-2.214,1.735c-1.358,0.198-2.614-0.509-3.114-1.726c-0.513-1.24-0.134-2.644,0.998-3.44
			c0.37-0.262,0.85-0.373,1.276-0.553C518.537,442.745,518.794,442.745,519.052,442.745z"/>
		<path fill="#A84894" d="M542.74,442.745c0.527,0.165,1.052,0.331,1.473,0.722c0.857,0.8,1.178,1.78,0.874,2.902
			c-0.318,1.175-1.115,1.907-2.33,2.092c-1.56,0.236-2.974-0.751-3.276-2.237c-0.315-1.549,0.657-3.046,2.217-3.413
			c0.071-0.017,0.141-0.043,0.209-0.064C542.184,442.745,542.463,442.745,542.74,442.745z"/>
		<path fill="#A84894" d="M529.063,478.029c0-11.645,0-23.279,0-34.939c1.084,0,2.166,0,3.266,0c0,11.646,0,23.279,0,34.939
			C531.246,478.029,530.164,478.029,529.063,478.029z"/>
	</g>
</g>
<g id="Saladaeng">
	<polyline fill="none" stroke="#000000" stroke-width="6" stroke-miterlimit="10" points="499.088,766.082 499.088,566.992 
		631.08,566.992 631.08,490.096 662.578,490.096 	"/>
</g>
<g id="Silom">
	<polyline fill="none" stroke="#000000" stroke-width="6" stroke-miterlimit="10" points="627.751,347.5 590.751,347.5 
		590.582,434.599 631.08,434.599 631.08,566.992 499.088,566.992 499.088,766.082 	"/>
	
		<line fill="none" stroke="#000000" stroke-width="5" stroke-miterlimit="10" x1="666.001" y1="566.992" x2="666.001" y2="655.333"/>
</g>
<g id="Sathorn">
	
		<line fill="none" stroke="#000000" stroke-width="6" stroke-miterlimit="10" x1="499.088" y1="766.082" x2="622.001" y2="766.082"/>
</g>
<g id="Sign">
	<g>
		<path d="M187.055,572.705l-1.285,1.225c-0.874-0.924-1.857-1.386-2.949-1.386c-0.922,0-1.699,0.315-2.33,0.946
			s-0.947,1.406-0.947,2.331c0,0.644,0.141,1.215,0.419,1.714c0.279,0.499,0.676,0.891,1.188,1.175s1.079,0.427,1.704,0.427
			c0.533,0,1.02-0.1,1.461-0.299c0.44-0.199,0.926-0.562,1.455-1.086l1.245,1.299c-0.714,0.696-1.387,1.178-2.021,1.447
			c-0.634,0.269-1.358,0.403-2.171,0.403c-1.5,0-2.728-0.477-3.684-1.428c-0.956-0.95-1.435-2.17-1.435-3.656
			c0-0.962,0.218-1.817,0.653-2.565c0.435-0.748,1.059-1.349,1.87-1.804c0.811-0.455,1.685-0.683,2.621-0.683
			c0.796,0,1.563,0.168,2.299,0.504C185.884,571.606,186.521,572.085,187.055,572.705z"/>
		<path d="M188.787,571.009h1.946c1.065,0,1.825,0.095,2.276,0.286c0.452,0.19,0.816,0.506,1.092,0.948
			c0.274,0.441,0.413,0.964,0.413,1.567c0,0.635-0.152,1.165-0.456,1.592c-0.305,0.426-0.763,0.749-1.374,0.968l2.286,4.29h-2.009
			l-2.17-4.087h-0.168v4.087h-1.837V571.009z M190.624,574.781h0.576c0.584,0,0.986-0.077,1.207-0.23
			c0.22-0.153,0.33-0.408,0.33-0.764c0-0.21-0.055-0.395-0.164-0.549c-0.109-0.156-0.255-0.269-0.438-0.336
			c-0.183-0.068-0.519-0.103-1.007-0.103h-0.503L190.624,574.781L190.624,574.781z"/>
		<path d="M201.012,570.766c1.364,0,2.538,0.494,3.521,1.482c0.982,0.989,1.474,2.193,1.474,3.615c0,1.408-0.483,2.6-1.453,3.574
			c-0.97,0.977-2.146,1.464-3.528,1.464c-1.448,0-2.652-0.5-3.61-1.502c-0.958-1.001-1.438-2.191-1.438-3.569
			c0-0.923,0.223-1.771,0.67-2.545c0.445-0.774,1.06-1.387,1.841-1.84C199.269,570.993,200.11,570.766,201.012,570.766z
			 M200.992,572.563c-0.893,0-1.644,0.312-2.252,0.933s-0.913,1.411-0.913,2.368c0,1.066,0.383,1.911,1.149,2.531
			c0.595,0.485,1.277,0.729,2.048,0.729c0.872,0,1.613-0.315,2.227-0.944c0.613-0.63,0.919-1.405,0.919-2.329
			c0-0.918-0.309-1.695-0.926-2.332C202.627,572.882,201.876,572.563,200.992,572.563z"/>
		<path d="M207.007,571.009h1.808l1.394,6.16l1.724-6.16h1.526l1.749,6.16l1.381-6.16h1.808l-2.174,9.65h-1.763l-1.777-6.239
			l-1.745,6.239h-1.745L207.007,571.009z"/>
		<path d="M219.835,571.009h1.763l4.129,6.351v-6.351h1.837v9.65h-1.768l-4.124-6.331v6.331h-1.837V571.009z"/>
		<path d="M229.773,571.009h5.268v1.797h-3.443v1.745h3.443v1.766h-3.443v2.539h3.443v1.804h-5.268V571.009z"/>
		<path d="M241.622,571.009h2.749v9.65h-1.824v-7.924h-1.987L241.622,571.009z"/>
	</g>
	<g>
		<path d="M253.052,512.247l-1.285,1.225c-0.874-0.924-1.857-1.386-2.949-1.386c-0.922,0-1.699,0.315-2.33,0.946
			s-0.947,1.407-0.947,2.331c0,0.644,0.141,1.215,0.419,1.714c0.279,0.499,0.675,0.891,1.188,1.175
			c0.512,0.284,1.079,0.427,1.704,0.427c0.532,0,1.02-0.1,1.461-0.299c0.44-0.199,0.926-0.562,1.455-1.086l1.245,1.299
			c-0.714,0.696-1.387,1.178-2.021,1.447c-0.634,0.269-1.358,0.403-2.171,0.403c-1.5,0-2.729-0.477-3.685-1.428
			c-0.955-0.95-1.434-2.17-1.434-3.656c0-0.962,0.218-1.817,0.653-2.565c0.435-0.748,1.059-1.349,1.87-1.804
			c0.811-0.455,1.685-0.683,2.621-0.683c0.796,0,1.563,0.168,2.299,0.505C251.881,511.148,252.518,511.627,253.052,512.247z"/>
		<path d="M254.783,510.551h1.946c1.065,0,1.825,0.096,2.276,0.286c0.452,0.19,0.816,0.506,1.092,0.948
			c0.274,0.441,0.413,0.964,0.413,1.568c0,0.634-0.152,1.164-0.456,1.591c-0.305,0.426-0.763,0.749-1.374,0.968l2.285,4.29h-2.008
			l-2.17-4.087h-0.168v4.087h-1.837V510.551L254.783,510.551z M256.62,514.323h0.576c0.584,0,0.986-0.077,1.207-0.23
			c0.22-0.153,0.33-0.408,0.33-0.764c0-0.21-0.055-0.394-0.164-0.549c-0.109-0.156-0.255-0.269-0.438-0.336
			c-0.183-0.068-0.519-0.103-1.007-0.103h-0.503L256.62,514.323L256.62,514.323z"/>
		<path d="M267.008,510.309c1.365,0,2.539,0.494,3.521,1.482c0.982,0.989,1.474,2.193,1.474,3.615c0,1.408-0.483,2.6-1.454,3.575
			c-0.969,0.976-2.146,1.463-3.527,1.463c-1.448,0-2.652-0.5-3.61-1.502c-0.958-1.001-1.438-2.191-1.438-3.569
			c0-0.923,0.223-1.771,0.67-2.545c0.445-0.774,1.06-1.387,1.841-1.84S266.106,510.309,267.008,510.309z M266.988,512.106
			c-0.893,0-1.644,0.311-2.252,0.932s-0.913,1.411-0.913,2.368c0,1.066,0.383,1.911,1.149,2.531
			c0.595,0.485,1.277,0.729,2.048,0.729c0.872,0,1.612-0.315,2.227-0.944c0.613-0.63,0.919-1.405,0.919-2.329
			c0-0.918-0.309-1.695-0.926-2.331C268.623,512.425,267.873,512.106,266.988,512.106z"/>
		<path d="M273.004,510.551h1.808l1.394,6.16l1.724-6.16h1.526l1.749,6.16l1.381-6.16h1.808l-2.174,9.65h-1.763l-1.777-6.239
			l-1.745,6.239h-1.745L273.004,510.551z"/>
		<path d="M285.832,510.551h1.763l4.129,6.351v-6.351h1.837v9.65h-1.768l-4.124-6.331v6.331h-1.837V510.551z"/>
		<path d="M295.77,510.551h5.268v1.797h-3.443v1.745h3.443v1.766h-3.443v2.539h3.443v1.804h-5.268V510.551z"/>
		<path d="M307.749,513.661h-1.791c0.049-1.041,0.375-1.859,0.98-2.457c0.605-0.597,1.383-0.896,2.332-0.896
			c0.586,0,1.103,0.124,1.552,0.371c0.448,0.247,0.808,0.604,1.076,1.069s0.403,0.939,0.403,1.42c0,0.573-0.163,1.189-0.489,1.85
			c-0.326,0.661-0.922,1.441-1.789,2.343l-1.083,1.141h3.439v1.699h-6.686v-0.879l2.985-3.044c0.722-0.73,1.202-1.317,1.439-1.762
			c0.238-0.443,0.357-0.845,0.357-1.204c0-0.372-0.124-0.679-0.371-0.921s-0.565-0.363-0.955-0.363
			c-0.394,0-0.722,0.146-0.984,0.438C307.904,512.759,307.767,513.158,307.749,513.661z"/>
	</g>
	<g>
		<path d="M311.805,452.544l-1.285,1.225c-0.874-0.924-1.857-1.386-2.949-1.386c-0.922,0-1.699,0.315-2.33,0.946
			s-0.946,1.407-0.946,2.331c0,0.644,0.14,1.215,0.419,1.714c0.278,0.499,0.675,0.891,1.187,1.175s1.079,0.427,1.704,0.427
			c0.533,0,1.02-0.1,1.461-0.299s0.926-0.562,1.455-1.086l1.245,1.299c-0.713,0.696-1.386,1.179-2.021,1.447
			c-0.634,0.27-1.357,0.403-2.171,0.403c-1.5,0-2.728-0.477-3.684-1.427c-0.956-0.951-1.435-2.171-1.435-3.657
			c0-0.962,0.219-1.817,0.653-2.565c0.436-0.748,1.06-1.349,1.87-1.804c0.812-0.455,1.685-0.682,2.621-0.682
			c0.796,0,1.563,0.168,2.299,0.504S311.271,451.924,311.805,452.544z"/>
		<path d="M313.536,450.848h1.946c1.066,0,1.825,0.096,2.277,0.286s0.815,0.506,1.091,0.948s0.413,0.964,0.413,1.568
			c0,0.634-0.152,1.165-0.456,1.591s-0.762,0.749-1.374,0.968l2.286,4.29h-2.008l-2.17-4.087h-0.168v4.087h-1.838V450.848
			L313.536,450.848z M315.373,454.62h0.576c0.584,0,0.986-0.077,1.207-0.23c0.22-0.153,0.33-0.407,0.33-0.764
			c0-0.21-0.055-0.394-0.164-0.549c-0.108-0.156-0.255-0.269-0.438-0.336c-0.184-0.068-0.52-0.103-1.007-0.103h-0.504
			L315.373,454.62L315.373,454.62z"/>
		<path d="M325.761,450.605c1.364,0,2.539,0.493,3.521,1.481c0.982,0.989,1.475,2.193,1.475,3.615c0,1.408-0.484,2.6-1.454,3.575
			s-2.146,1.463-3.528,1.463c-1.448,0-2.652-0.5-3.61-1.502c-0.958-1.001-1.438-2.191-1.438-3.569c0-0.923,0.223-1.771,0.67-2.545
			c0.446-0.774,1.06-1.387,1.841-1.84C324.018,450.832,324.859,450.605,325.761,450.605z M325.741,452.403
			c-0.893,0-1.644,0.311-2.252,0.932c-0.607,0.621-0.913,1.411-0.913,2.368c0,1.066,0.384,1.911,1.149,2.532
			c0.595,0.484,1.278,0.728,2.048,0.728c0.872,0,1.613-0.314,2.227-0.943c0.613-0.631,0.92-1.406,0.92-2.329
			c0-0.918-0.31-1.696-0.927-2.332C327.376,452.722,326.626,452.403,325.741,452.403z"/>
		<path d="M331.758,450.848h1.807l1.394,6.16l1.724-6.16h1.526l1.749,6.16l1.382-6.16h1.807l-2.174,9.65h-1.762l-1.778-6.239
			l-1.745,6.239h-1.745L331.758,450.848z"/>
		<path d="M344.586,450.848h1.762l4.129,6.351v-6.351h1.837v9.65h-1.767l-4.124-6.331v6.331h-1.837V450.848z"/>
		<path d="M354.523,450.848h5.269v1.797h-3.444v1.745h3.444v1.766h-3.444v2.539h3.444v1.804h-5.269V450.848z"/>
		<path d="M366.713,453.229h-1.766c0.092-0.713,0.349-1.285,0.769-1.719c0.586-0.604,1.322-0.904,2.211-0.904
			c0.792,0,1.455,0.251,1.99,0.754c0.536,0.503,0.805,1.1,0.805,1.791c0,0.429-0.117,0.819-0.352,1.174
			c-0.233,0.354-0.573,0.641-1.02,0.858c0.586,0.176,1.044,0.48,1.375,0.915c0.33,0.436,0.495,0.948,0.495,1.538
			c0,0.866-0.319,1.601-0.958,2.201c-0.639,0.602-1.452,0.902-2.44,0.902c-0.936,0-1.699-0.283-2.29-0.851
			c-0.591-0.566-0.914-1.337-0.971-2.313h1.816c0.079,0.499,0.253,0.87,0.521,1.112c0.269,0.241,0.609,0.363,1.02,0.363
			c0.43,0,0.784-0.138,1.066-0.413c0.282-0.274,0.423-0.611,0.423-1.01c0-0.438-0.189-0.807-0.571-1.109
			c-0.381-0.302-0.929-0.456-1.646-0.465v-1.574c0.441-0.035,0.771-0.104,0.987-0.207c0.216-0.104,0.385-0.244,0.505-0.424
			c0.121-0.179,0.181-0.368,0.181-0.569c0-0.264-0.092-0.48-0.274-0.653c-0.185-0.173-0.425-0.259-0.723-0.259
			c-0.263,0-0.501,0.08-0.715,0.24C366.938,452.768,366.791,452.976,366.713,453.229z"/>
	</g>
	<g>
		<path d="M377.805,398.544l-1.285,1.225c-0.874-0.924-1.857-1.386-2.949-1.386c-0.922,0-1.699,0.315-2.33,0.946
			s-0.946,1.407-0.946,2.331c0,0.644,0.14,1.215,0.419,1.714c0.278,0.499,0.675,0.891,1.187,1.175
			c0.512,0.284,1.079,0.427,1.704,0.427c0.533,0,1.02-0.1,1.461-0.299c0.441-0.199,0.926-0.562,1.455-1.086l1.245,1.299
			c-0.713,0.696-1.386,1.178-2.021,1.447c-0.634,0.269-1.357,0.403-2.171,0.403c-1.5,0-2.728-0.476-3.684-1.427
			s-1.435-2.17-1.435-3.657c0-0.962,0.219-1.817,0.653-2.565c0.436-0.748,1.06-1.349,1.87-1.804
			c0.812-0.455,1.685-0.682,2.621-0.682c0.796,0,1.563,0.168,2.299,0.504S377.271,397.924,377.805,398.544z"/>
		<path d="M379.536,396.848h1.946c1.066,0,1.825,0.095,2.277,0.286c0.452,0.19,0.815,0.506,1.091,0.948s0.413,0.964,0.413,1.568
			c0,0.634-0.152,1.165-0.456,1.591c-0.304,0.426-0.762,0.749-1.374,0.968l2.286,4.29h-2.008l-2.17-4.087h-0.168v4.087h-1.838
			V396.848L379.536,396.848z M381.373,400.62h0.576c0.584,0,0.986-0.077,1.207-0.23c0.22-0.154,0.33-0.408,0.33-0.764
			c0-0.21-0.055-0.394-0.164-0.549c-0.108-0.156-0.255-0.268-0.438-0.336c-0.184-0.068-0.52-0.102-1.007-0.102h-0.504
			L381.373,400.62L381.373,400.62z"/>
		<path d="M391.761,396.605c1.364,0,2.539,0.494,3.521,1.482c0.982,0.989,1.475,2.193,1.475,3.615c0,1.408-0.484,2.6-1.454,3.575
			c-0.97,0.976-2.146,1.463-3.528,1.463c-1.448,0-2.652-0.5-3.61-1.502c-0.958-1.001-1.438-2.191-1.438-3.569
			c0-0.923,0.223-1.771,0.67-2.545c0.446-0.774,1.06-1.387,1.841-1.84C390.018,396.832,390.859,396.605,391.761,396.605z
			 M391.741,398.403c-0.893,0-1.644,0.311-2.252,0.932c-0.607,0.621-0.913,1.411-0.913,2.368c0,1.067,0.384,1.911,1.149,2.532
			c0.595,0.485,1.278,0.728,2.048,0.728c0.872,0,1.613-0.315,2.227-0.944c0.613-0.63,0.92-1.406,0.92-2.329
			c0-0.918-0.31-1.696-0.927-2.332C393.376,398.722,392.626,398.403,391.741,398.403z"/>
		<path d="M397.758,396.848h1.807l1.394,6.16l1.724-6.16h1.526l1.749,6.16l1.382-6.16h1.807l-2.174,9.65h-1.762l-1.778-6.239
			l-1.745,6.239h-1.745L397.758,396.848z"/>
		<path d="M410.586,396.848h1.762l4.129,6.35v-6.35h1.837v9.65h-1.767l-4.124-6.331v6.331h-1.837V396.848z"/>
		<path d="M420.523,396.848h5.269v1.797h-3.444v1.745h3.444v1.765h-3.444v2.539h3.444v1.804h-5.269V396.848z"/>
		<path d="M434.613,396.605h1.832v6.212h0.859v1.699h-0.859v1.981h-1.799v-1.981h-4.211v-1.699L434.613,396.605z M434.646,402.818
			v-3.234l-2.203,3.234H434.646z"/>
	</g>
	<g>
		<path d="M441.805,338.046l-1.285,1.225c-0.873-0.924-1.856-1.386-2.949-1.386c-0.922,0-1.698,0.315-2.33,0.946
			c-0.631,0.63-0.946,1.407-0.946,2.331c0,0.644,0.141,1.215,0.42,1.714c0.278,0.499,0.676,0.891,1.187,1.175
			c0.511,0.284,1.079,0.427,1.704,0.427c0.533,0,1.021-0.1,1.461-0.299c0.441-0.199,0.927-0.562,1.455-1.086l1.246,1.299
			c-0.713,0.696-1.387,1.178-2.021,1.447c-0.633,0.269-1.356,0.403-2.17,0.403c-1.501,0-2.729-0.476-3.684-1.427
			c-0.956-0.951-1.434-2.17-1.434-3.657c0-0.962,0.217-1.817,0.651-2.565c0.436-0.748,1.06-1.349,1.869-1.804
			c0.813-0.455,1.686-0.682,2.621-0.682c0.796,0,1.563,0.168,2.299,0.504C440.636,336.948,441.271,337.426,441.805,338.046z"/>
		<path d="M443.536,336.35h1.946c1.066,0,1.824,0.095,2.277,0.286c0.451,0.19,0.814,0.506,1.09,0.948
			c0.274,0.442,0.414,0.964,0.414,1.568c0,0.634-0.152,1.165-0.457,1.591c-0.303,0.426-0.762,0.749-1.373,0.968l2.285,4.29h-2.008
			l-2.171-4.087h-0.168V346h-1.837L443.536,336.35L443.536,336.35z M445.373,340.122h0.576c0.584,0,0.986-0.077,1.206-0.23
			c0.22-0.154,0.33-0.408,0.33-0.764c0-0.21-0.055-0.394-0.163-0.549c-0.108-0.156-0.256-0.268-0.438-0.336
			c-0.183-0.068-0.52-0.102-1.007-0.102h-0.505V340.122z"/>
		<path d="M455.762,336.107c1.365,0,2.539,0.494,3.521,1.482c0.982,0.989,1.474,2.193,1.474,3.615c0,1.408-0.484,2.6-1.453,3.575
			c-0.971,0.976-2.146,1.463-3.529,1.463c-1.447,0-2.651-0.5-3.609-1.502c-0.959-1.001-1.438-2.191-1.438-3.569
			c0-0.923,0.223-1.771,0.67-2.545c0.445-0.774,1.06-1.387,1.841-1.84C454.018,336.334,454.859,336.107,455.762,336.107z
			 M455.741,337.905c-0.894,0-1.644,0.311-2.253,0.932c-0.606,0.621-0.912,1.411-0.912,2.368c0,1.067,0.384,1.911,1.149,2.532
			c0.595,0.485,1.278,0.728,2.048,0.728c0.872,0,1.613-0.315,2.228-0.944c0.612-0.63,0.92-1.406,0.92-2.329
			c0-0.918-0.31-1.696-0.927-2.332C457.378,338.224,456.626,337.905,455.741,337.905z"/>
		<path d="M461.758,336.35h1.808l1.395,6.16l1.724-6.16h1.527l1.747,6.16l1.382-6.16h1.807l-2.174,9.65h-1.762l-1.777-6.239
			L465.687,346h-1.745L461.758,336.35z"/>
		<path d="M474.586,336.35h1.763l4.129,6.35v-6.35h1.836V346h-1.767l-4.124-6.331V346h-1.837V336.35z"/>
		<path d="M484.523,336.35h5.269v1.797h-3.444v1.745h3.444v1.765h-3.444v2.539h3.444V346h-5.269V336.35z"/>
		<path d="M496.404,336.35h4.521v1.699h-3.148l-0.395,1.751c0.108-0.031,0.217-0.054,0.321-0.069s0.205-0.023,0.302-0.023
			c0.875,0,1.602,0.298,2.182,0.896c0.58,0.597,0.869,1.361,0.869,2.292c0,0.94-0.32,1.733-0.961,2.378
			c-0.642,0.646-1.42,0.968-2.339,0.968c-0.822,0-1.528-0.234-2.118-0.702c-0.591-0.468-0.979-1.109-1.162-1.922h1.93
			c0.148,0.302,0.344,0.53,0.586,0.686c0.243,0.155,0.513,0.233,0.806,0.233c0.405,0,0.752-0.146,1.035-0.439
			c0.284-0.293,0.428-0.669,0.428-1.128c0-0.446-0.134-0.813-0.397-1.099c-0.265-0.287-0.585-0.43-0.961-0.43
			c-0.201,0-0.398,0.05-0.594,0.151c-0.195,0.101-0.386,0.251-0.574,0.453l-1.495-0.334L496.404,336.35z"/>
	</g>
	<g>
		<path d="M512.939,239.35h1.838v7.898h2.676V249h-4.514V239.35L512.939,239.35z"/>
		<path d="M518.785,239.35h1.845v6.24c0,0.538,0.047,0.917,0.141,1.141c0.094,0.223,0.249,0.401,0.466,0.534
			c0.216,0.133,0.479,0.2,0.784,0.2c0.323,0,0.602-0.074,0.836-0.223c0.234-0.149,0.396-0.337,0.485-0.567
			c0.09-0.229,0.135-0.667,0.135-1.314v-6.011h1.843v5.753c0,0.971-0.055,1.644-0.164,2.021c-0.108,0.376-0.317,0.739-0.626,1.089
			c-0.308,0.35-0.663,0.609-1.064,0.777c-0.402,0.168-0.871,0.252-1.404,0.252c-0.699,0-1.31-0.161-1.827-0.482
			c-0.519-0.322-0.889-0.724-1.112-1.207c-0.223-0.483-0.334-1.3-0.334-2.45v-5.753H518.785z"/>
		<path d="M528.387,239.35h1.789l2.237,6.73l2.257-6.73h1.789l1.618,9.65h-1.775l-1.034-6.094L533.218,249h-1.619l-2.031-6.094
			l-1.06,6.094h-1.791L528.387,239.35z"/>
		<path d="M539.534,239.35h1.948c1.054,0,1.814,0.098,2.279,0.292c0.466,0.195,0.834,0.51,1.102,0.945
			c0.271,0.435,0.404,0.957,0.404,1.564c0,0.673-0.176,1.233-0.528,1.679c-0.353,0.446-0.829,0.757-1.433,0.932
			c-0.355,0.101-1,0.151-1.937,0.151V249h-1.837L539.534,239.35L539.534,239.35z M541.371,243.122h0.584
			c0.459,0,0.777-0.033,0.957-0.099c0.181-0.066,0.32-0.174,0.425-0.326c0.102-0.151,0.153-0.334,0.153-0.55
			c0-0.373-0.145-0.645-0.434-0.816c-0.21-0.127-0.601-0.191-1.168-0.191h-0.519L541.371,243.122L541.371,243.122z"/>
		<path d="M546.934,239.35h1.824V249h-1.824V239.35z"/>
		<path d="M550.83,239.35h1.763l4.129,6.35v-6.35h1.838V249h-1.768l-4.124-6.331V249h-1.837L550.83,239.35L550.83,239.35z"/>
		<path d="M560.632,239.35h1.823V249h-1.823V239.35z"/>
	</g>
	<g>
		<path d="M681.173,344.662l-1.36,1.201c-0.478-0.665-0.964-0.997-1.459-0.997c-0.241,0-0.438,0.064-0.592,0.193
			c-0.154,0.129-0.229,0.274-0.229,0.436c0,0.162,0.056,0.315,0.164,0.459c0.148,0.192,0.599,0.606,1.349,1.24
			c0.699,0.586,1.125,0.956,1.273,1.109c0.372,0.376,0.636,0.736,0.792,1.079c0.155,0.343,0.232,0.718,0.232,1.125
			c0,0.792-0.273,1.445-0.82,1.961c-0.547,0.516-1.261,0.774-2.141,0.774c-0.688,0-1.286-0.168-1.797-0.505
			c-0.511-0.337-0.946-0.866-1.311-1.588l1.544-0.931c0.465,0.853,0.998,1.279,1.604,1.279c0.313,0,0.58-0.092,0.795-0.275
			c0.215-0.183,0.322-0.396,0.322-0.636c0-0.219-0.082-0.438-0.244-0.656c-0.162-0.218-0.521-0.553-1.07-1.003
			c-1.052-0.857-1.73-1.519-2.037-1.984c-0.307-0.465-0.461-0.931-0.461-1.394c0-0.669,0.256-1.243,0.766-1.722
			c0.511-0.479,1.141-0.718,1.89-0.718c0.479,0,0.938,0.112,1.375,0.334C680.191,343.665,680.664,344.072,681.173,344.662z"/>
		<path d="M682.964,343.35h1.822V353h-1.822V343.35z"/>
		<path d="M686.853,343.35h1.837v7.898h2.676V353h-4.513V343.35z"/>
		<path d="M697.319,343.107c1.365,0,2.539,0.494,3.521,1.482c0.981,0.989,1.474,2.193,1.474,3.615c0,1.408-0.484,2.6-1.454,3.575
			c-0.97,0.976-2.146,1.463-3.528,1.463c-1.447,0-2.651-0.5-3.609-1.502c-0.958-1.002-1.438-2.191-1.438-3.569
			c0-0.923,0.225-1.771,0.67-2.545c0.446-0.774,1.061-1.387,1.842-1.84C695.576,343.333,696.419,343.107,697.319,343.107z
			 M697.3,344.905c-0.894,0-1.645,0.311-2.252,0.932c-0.608,0.621-0.912,1.411-0.912,2.368c0,1.067,0.383,1.911,1.147,2.532
			c0.597,0.485,1.278,0.728,2.05,0.728c0.87,0,1.612-0.315,2.227-0.944c0.613-0.63,0.919-1.406,0.919-2.329
			c0-0.918-0.309-1.696-0.926-2.332C698.935,345.224,698.184,344.905,697.3,344.905z"/>
		<path d="M704.982,343.35h1.789l2.238,6.73l2.256-6.73h1.789l1.619,9.65h-1.776l-1.034-6.094l-2.05,6.094h-1.619l-2.031-6.094
			l-1.06,6.094h-1.791L704.982,343.35z"/>
	</g>
	<g>
		<path d="M699.167,475.158l-1.36,1.201c-0.479-0.665-0.964-0.997-1.459-0.997c-0.241,0-0.438,0.063-0.592,0.192
			c-0.154,0.129-0.229,0.274-0.229,0.437s0.055,0.314,0.164,0.459c0.148,0.191,0.598,0.605,1.348,1.24
			c0.7,0.586,1.125,0.955,1.274,1.108c0.372,0.376,0.636,0.736,0.792,1.079c0.155,0.343,0.232,0.718,0.232,1.125
			c0,0.792-0.273,1.445-0.82,1.961c-0.547,0.517-1.261,0.774-2.141,0.774c-0.688,0-1.286-0.168-1.798-0.505
			c-0.51-0.338-0.945-0.866-1.31-1.589l1.544-0.931c0.465,0.854,0.998,1.279,1.604,1.279c0.313,0,0.58-0.092,0.795-0.275
			c0.215-0.183,0.321-0.396,0.321-0.636c0-0.219-0.082-0.438-0.243-0.656c-0.162-0.218-0.521-0.553-1.07-1.003
			c-1.052-0.856-1.73-1.519-2.037-1.983c-0.307-0.466-0.461-0.932-0.461-1.395c0-0.669,0.256-1.243,0.766-1.722
			c0.51-0.479,1.141-0.718,1.89-0.718c0.479,0,0.938,0.111,1.375,0.334C698.186,474.161,698.658,474.568,699.167,475.158z"/>
		<path d="M704.031,473.846h1.863l3.711,9.65h-1.908l-0.756-1.988h-3.938l-0.784,1.988h-1.909L704.031,473.846z M704.975,476.405
			l-1.295,3.313h2.582L704.975,476.405z"/>
		<path d="M711.026,473.846h1.837v7.898h2.676v1.751h-4.513V473.846z"/>
		<path d="M719.882,473.846h1.862l3.711,9.65h-1.907l-0.757-1.988h-3.938l-0.785,1.988h-1.908L719.882,473.846z M720.824,476.405
			l-1.295,3.313h2.582L720.824,476.405z"/>
		<path d="M730.688,479.107h3.332v1.667h-3.332V479.107z"/>
		<path d="M694.107,489.968h2.177c1.403,0,2.444,0.174,3.126,0.521c0.683,0.347,1.244,0.913,1.687,1.695
			c0.44,0.783,0.662,1.697,0.662,2.742c0,0.744-0.124,1.427-0.371,2.05c-0.247,0.624-0.588,1.142-1.022,1.553
			c-0.434,0.411-0.905,0.694-1.413,0.853c-0.506,0.158-1.385,0.236-2.635,0.236h-2.209L694.107,489.968L694.107,489.968z
			 M695.932,491.74v6.087h0.854c0.841,0,1.448-0.096,1.826-0.289c0.379-0.193,0.688-0.517,0.93-0.972
			c0.239-0.455,0.359-1.017,0.359-1.682c0-1.023-0.286-1.818-0.859-2.384c-0.516-0.508-1.345-0.762-2.485-0.762L695.932,491.74
			L695.932,491.74z"/>
		<path d="M706.453,489.968h1.862l3.712,9.65h-1.909l-0.755-1.988h-3.938l-0.785,1.988h-1.909L706.453,489.968z M707.396,492.527
			l-1.294,3.313h2.581L707.396,492.527z"/>
		<path d="M713.453,489.968h5.269v1.797h-3.443v1.745h3.443v1.766h-3.443v2.539h3.443v1.804h-5.269V489.968z"/>
		<path d="M720.439,489.968h1.763l4.129,6.351v-6.351h1.838v9.65H726.4l-4.123-6.331v6.331h-1.838V489.968z"/>
		<path d="M739.28,491.543l-1.294,1.279c-0.817-0.866-1.771-1.299-2.862-1.299c-0.949,0-1.744,0.314-2.387,0.944
			c-0.642,0.63-0.962,1.396-0.962,2.296c0,0.933,0.333,1.722,0.998,2.368c0.666,0.647,1.486,0.971,2.463,0.971
			c0.635,0,1.17-0.134,1.605-0.399c0.435-0.266,0.787-0.686,1.055-1.253h-2.795v-1.726h4.854l0.015,0.407
			c0,0.844-0.219,1.645-0.656,2.401c-0.438,0.756-1.004,1.334-1.699,1.731c-0.694,0.397-1.51,0.598-2.445,0.598
			c-1.001,0-1.896-0.219-2.681-0.653c-0.785-0.435-1.405-1.055-1.862-1.859c-0.457-0.804-0.687-1.673-0.687-2.604
			c0-1.277,0.423-2.388,1.268-3.333c1.001-1.124,2.305-1.687,3.908-1.687c0.841,0,1.625,0.155,2.355,0.467
			C738.087,490.454,738.689,490.904,739.28,491.543z"/>
	</g>
	<g>
		<path d="M666.167,757.746l-1.36,1.199c-0.479-0.664-0.964-0.996-1.459-0.996c-0.241,0-0.438,0.064-0.592,0.193
			c-0.154,0.129-0.229,0.273-0.229,0.436c0,0.164,0.055,0.314,0.164,0.459c0.148,0.193,0.598,0.605,1.348,1.24
			c0.7,0.586,1.125,0.955,1.274,1.109c0.372,0.375,0.636,0.734,0.792,1.078c0.155,0.344,0.232,0.719,0.232,1.125
			c0,0.791-0.273,1.445-0.82,1.961c-0.547,0.518-1.261,0.775-2.141,0.775c-0.688,0-1.286-0.17-1.798-0.506
			c-0.51-0.336-0.945-0.865-1.31-1.59l1.544-0.93c0.465,0.854,0.998,1.277,1.604,1.277c0.313,0,0.58-0.092,0.795-0.275
			c0.215-0.182,0.321-0.395,0.321-0.635c0-0.219-0.082-0.439-0.243-0.656c-0.162-0.219-0.521-0.553-1.07-1.004
			c-1.052-0.855-1.73-1.52-2.037-1.984c-0.307-0.467-0.461-0.932-0.461-1.395c0-0.668,0.256-1.242,0.766-1.723
			c0.51-0.479,1.141-0.719,1.89-0.719c0.479,0,0.938,0.113,1.375,0.336C665.187,756.746,665.658,757.154,666.167,757.746z"/>
		<path d="M671.031,756.433h1.863l3.711,9.65h-1.908l-0.756-1.988h-3.938l-0.784,1.988h-1.909L671.031,756.433z M671.975,758.992
			l-1.295,3.313h2.582L671.975,758.992z"/>
		<path d="M677.075,756.433h5.333v1.813h-1.758v7.838h-1.863v-7.838h-1.712V756.433L677.075,756.433z"/>
		<path d="M683.662,756.433h1.862v3.643h3.222v-3.643h1.855v9.65h-1.855v-4.232h-3.222v4.232h-1.862V756.433z"/>
		<path d="M697.362,756.191c1.365,0,2.539,0.492,3.521,1.48c0.981,0.99,1.474,2.193,1.474,3.615c0,1.408-0.484,2.6-1.454,3.576
			c-0.97,0.975-2.146,1.463-3.527,1.463c-1.448,0-2.652-0.502-3.61-1.502c-0.958-1.002-1.438-2.191-1.438-3.57
			c0-0.922,0.225-1.77,0.67-2.545c0.446-0.773,1.061-1.387,1.842-1.84C695.619,756.417,696.462,756.191,697.362,756.191z
			 M697.343,757.988c-0.894,0-1.645,0.311-2.252,0.932c-0.608,0.621-0.912,1.41-0.912,2.367c0,1.068,0.383,1.912,1.147,2.533
			c0.597,0.484,1.278,0.729,2.05,0.729c0.87,0,1.612-0.314,2.227-0.943c0.613-0.631,0.919-1.406,0.919-2.33
			c0-0.918-0.309-1.695-0.926-2.332S698.227,757.988,697.343,757.988z"/>
		<path d="M704.215,756.433h1.945c1.066,0,1.824,0.096,2.277,0.285c0.451,0.189,0.815,0.506,1.09,0.947
			c0.275,0.443,0.414,0.965,0.414,1.568c0,0.635-0.152,1.164-0.457,1.592c-0.303,0.426-0.762,0.748-1.373,0.967l2.285,4.291h-2.008
			l-2.17-4.088h-0.168v4.088h-1.837L704.215,756.433L704.215,756.433z M706.052,760.205h0.576c0.584,0,0.985-0.076,1.205-0.23
			c0.221-0.152,0.33-0.406,0.33-0.764c0-0.209-0.055-0.393-0.162-0.549c-0.109-0.156-0.257-0.268-0.438-0.336
			s-0.519-0.102-1.007-0.102h-0.504V760.205L706.052,760.205z"/>
		<path d="M711.889,756.433h1.762l4.129,6.352v-6.352h1.838v9.65h-1.768l-4.124-6.332v6.332h-1.837V756.433L711.889,756.433z"/>
	</g>
	<rect x="498.346" y="790" width="103.052" height="33"/>
	<g>
		<path fill="#FFFFFF" d="M532.984,801.882h1.642v7.055h2.391v1.564h-4.031L532.984,801.882L532.984,801.882z"/>
		<path fill="#FFFFFF" d="M542.333,801.666c1.221,0,2.269,0.441,3.146,1.324s1.316,1.959,1.316,3.229c0,1.258-0.434,2.322-1.3,3.193
			c-0.865,0.871-1.916,1.307-3.15,1.307c-1.294,0-2.369-0.447-3.226-1.342c-0.855-0.895-1.283-1.957-1.283-3.188
			c0-0.824,0.198-1.582,0.598-2.273c0.398-0.691,0.947-1.238,1.645-1.643S541.527,801.666,542.333,801.666z M542.315,803.271
			c-0.798,0-1.469,0.277-2.012,0.832c-0.544,0.555-0.815,1.26-0.815,2.115c0,0.953,0.342,1.707,1.026,2.262
			c0.532,0.434,1.142,0.65,1.83,0.65c0.777,0,1.439-0.281,1.987-0.844c0.549-0.564,0.821-1.256,0.821-2.08
			c0-0.82-0.275-1.514-0.827-2.082S543.105,803.271,542.315,803.271z"/>
		<path fill="#FFFFFF" d="M548.343,810.501v-8.619h1.354c0.786,0,1.36,0.051,1.726,0.152c0.516,0.137,0.927,0.391,1.23,0.762
			c0.307,0.371,0.458,0.811,0.458,1.314c0,0.326-0.069,0.627-0.208,0.895s-0.364,0.518-0.677,0.752
			c0.522,0.246,0.906,0.555,1.147,0.924c0.242,0.369,0.363,0.805,0.363,1.309c0,0.484-0.125,0.926-0.375,1.324
			c-0.251,0.398-0.573,0.697-0.969,0.895s-0.94,0.295-1.636,0.295h-2.415V810.501z M549.982,803.447v1.816h0.358
			c0.399,0,0.696-0.084,0.892-0.252s0.291-0.396,0.291-0.686c0-0.271-0.092-0.482-0.276-0.643c-0.184-0.158-0.465-0.236-0.841-0.236
			H549.982L549.982,803.447z M549.982,806.728v2.209h0.411c0.682,0,1.141-0.086,1.378-0.258s0.354-0.422,0.354-0.75
			c0-0.371-0.139-0.664-0.416-0.879c-0.278-0.215-0.74-0.322-1.388-0.322H549.982L549.982,806.728z"/>
		<path fill="#FFFFFF" d="M555.303,810.501v-8.619h1.354c0.786,0,1.36,0.051,1.726,0.152c0.516,0.137,0.927,0.391,1.23,0.762
			c0.307,0.371,0.458,0.811,0.458,1.314c0,0.326-0.068,0.627-0.208,0.895c-0.139,0.268-0.364,0.518-0.677,0.752
			c0.522,0.246,0.906,0.555,1.147,0.924c0.242,0.369,0.363,0.805,0.363,1.309c0,0.484-0.125,0.926-0.375,1.324
			c-0.251,0.398-0.573,0.697-0.969,0.895s-0.94,0.295-1.636,0.295h-2.415V810.501z M556.943,803.447v1.816h0.358
			c0.399,0,0.696-0.084,0.892-0.252s0.291-0.396,0.291-0.686c0-0.271-0.092-0.482-0.276-0.643c-0.184-0.158-0.465-0.236-0.841-0.236
			H556.943L556.943,803.447z M556.943,806.728v2.209h0.411c0.682,0,1.141-0.086,1.378-0.258s0.355-0.422,0.355-0.75
			c0-0.371-0.14-0.664-0.417-0.879c-0.278-0.215-0.74-0.322-1.388-0.322H556.943L556.943,806.728z"/>
		<path fill="#FFFFFF" d="M561.651,801.882h1.762l1.607,3.104l1.601-3.104h1.739l-2.521,4.887v3.732h-1.652v-3.732L561.651,801.882z
			"/>
	</g>
	<g>
		<path d="M302.817,736.33v-8.619h1.355c0.785,0,1.36,0.051,1.725,0.152c0.516,0.137,0.927,0.391,1.232,0.762
			c0.305,0.371,0.458,0.809,0.458,1.313c0,0.328-0.069,0.627-0.208,0.895c-0.14,0.268-0.364,0.52-0.678,0.754
			c0.523,0.246,0.906,0.553,1.148,0.922s0.363,0.807,0.363,1.311c0,0.484-0.125,0.926-0.375,1.324s-0.573,0.695-0.969,0.895
			c-0.395,0.197-0.939,0.295-1.637,0.295h-2.416V736.33z M304.458,729.275v1.816h0.359c0.4,0,0.697-0.084,0.891-0.252
			c0.194-0.168,0.291-0.396,0.291-0.686c0-0.271-0.092-0.484-0.275-0.643c-0.186-0.158-0.465-0.236-0.841-0.236H304.458
			L304.458,729.275z M304.458,732.556v2.209h0.411c0.683,0,1.142-0.086,1.378-0.258c0.237-0.172,0.355-0.422,0.355-0.75
			c0-0.371-0.139-0.664-0.417-0.879s-0.741-0.322-1.387-0.322H304.458L304.458,732.556z"/>
		<path d="M312.408,727.71h1.664l3.315,8.619h-1.705l-0.674-1.775h-3.518l-0.701,1.775h-1.704L312.408,727.71z M313.251,729.996
			l-1.156,2.959h2.306L313.251,729.996z"/>
		<path d="M318.767,727.71h1.738c0.951,0,1.63,0.086,2.033,0.256c0.404,0.17,0.729,0.451,0.976,0.846
			c0.246,0.396,0.369,0.861,0.369,1.4c0,0.566-0.137,1.041-0.407,1.422c-0.271,0.381-0.681,0.668-1.229,0.863l2.042,3.832h-1.793
			l-1.938-3.65h-0.15v3.65h-1.641L318.767,727.71L318.767,727.71z M320.407,731.08h0.515c0.521,0,0.881-0.068,1.077-0.205
			c0.197-0.137,0.296-0.365,0.296-0.682c0-0.189-0.05-0.354-0.146-0.492c-0.098-0.139-0.228-0.238-0.392-0.299
			c-0.164-0.063-0.463-0.092-0.899-0.092h-0.45V731.08L320.407,731.08z"/>
	</g>
	<g>
		<path id="path3261" fill="#A84894" d="M444.68,822.589v-16.012c-0.003-1.6,1.226-2.926,2.91-2.928h16.063
			c1.63,0.002,2.912,1.311,2.91,2.928v16.029c0.005,1.695-1.299,2.893-2.893,2.893h-16.081l0,0
			C445.997,825.501,444.674,824.228,444.68,822.589"/>
		<path id="path3265" fill="#A84894" d="M459.581,791.253c-0.018-2.092,3.014-2.115,3.033,0l-0.054,6.367l1.641-2.012
			c1.119-1.229,3.099,0.492,1.869,1.887l-3.95,4.709c-0.62,0.625-1.432,0.621-2.045,0l-3.951-4.727
			c-1.214-1.395,0.783-3.135,1.888-1.887l1.622,2.027L459.581,791.253"/>
		<path id="path3267" fill="#A84894" d="M448.577,801.111c-0.017,2.092,3.016,2.113,3.034,0l-0.054-6.365l1.64,1.992
			c1.121,1.242,3.101-0.479,1.889-1.869l-3.969-4.707c-0.62-0.629-1.432-0.625-2.046,0l-3.95,4.725
			c-1.214,1.393,0.784,3.131,1.888,1.869l1.622-2.01L448.577,801.111"/>
	</g>
	<g>
		<path id="path3269" fill="#999999" d="M462.791,815.73c-0.001,0.324-0.259,0.547-0.547,0.547c0,0-3.536,0-3.545,0
			c-0.273,0-0.535-0.225-0.528-0.547v-3.846c-0.007-0.445,0.348-0.748,0.74-0.74c-0.01-0.008,3.139,0,3.139,0
			c0.42-0.008,0.74,0.328,0.741,0.74V815.73"/>
		<path id="path3271" fill="#999999" d="M461.927,816.134h-1.357v5.221c0.003,0.922,1.354,0.922,1.357,0V816.134"/>
		<path id="path3273" fill="#999999" d="M460.374,816.134h-1.356v5.221c0.001,0.914,1.352,0.914,1.356,0V816.134"/>
		<path id="path3275" fill="#999999" d="M460.498,810.828c0.552-0.004,1.006-0.457,1.006-1.023c0-0.553-0.454-1.008-1.006-1.004
			c-0.566-0.004-1.021,0.451-1.022,1.004C459.477,810.371,459.931,810.824,460.498,810.828"/>
		<path id="path3277" fill="#999999" d="M457.94,815.73c0,0.324-0.257,0.547-0.546,0.547c0,0-3.536,0-3.545,0
			c-0.274,0-0.535-0.225-0.529-0.547v-3.846c-0.006-0.445,0.35-0.748,0.741-0.74c-0.009-0.008,3.139,0,3.139,0
			c0.419-0.008,0.74,0.328,0.74,0.74V815.73"/>
		<path id="path3279" fill="#999999" d="M457.077,816.134h-1.356v5.221c0.004,0.922,1.354,0.922,1.356,0V816.134"/>
		<path id="path3281" fill="#999999" d="M455.524,816.134h-1.357v5.221c0.002,0.914,1.353,0.914,1.357,0V816.134"/>
		<path id="path3283" fill="#999999" d="M455.648,810.828c0.552-0.004,1.005-0.457,1.005-1.023c0-0.553-0.453-1.008-1.005-1.004
			c-0.567-0.004-1.021,0.451-1.021,1.004C454.629,810.371,455.081,810.824,455.648,810.828"/>
		<path id="path3285" fill="#999999" d="M453.093,815.73c-0.001,0.324-0.257,0.547-0.547,0.547c0,0-3.536,0-3.545,0
			c-0.274,0-0.535-0.225-0.528-0.547v-3.846c-0.007-0.445,0.348-0.748,0.741-0.74c-0.011-0.008,3.138,0,3.138,0
			c0.419-0.008,0.74,0.328,0.741,0.74V815.73"/>
		<path id="path3287" fill="#999999" d="M452.228,816.134h-1.357v5.221c0.005,0.922,1.354,0.922,1.357,0V816.134"/>
		<path id="path3289" fill="#999999" d="M450.676,816.134h-1.357v5.221c0.002,0.914,1.353,0.914,1.357,0V816.134"/>
		<path id="path3291" fill="#999999" d="M450.8,810.828c0.552-0.004,1.005-0.457,1.005-1.023c0-0.553-0.453-1.008-1.005-1.004
			c-0.567-0.004-1.021,0.451-1.022,1.004C449.778,810.371,450.231,810.824,450.8,810.828"/>
	</g>
	<g>
		<path fill="#A84894" d="M468.502,832.667h-24.667c-7.721,0-14-6.281-14-14V794c0-7.719,6.279-14,14-14h24.667
			c7.72,0,14,6.281,14,14v24.668C482.502,826.386,476.221,832.667,468.502,832.667z M443.835,784c-5.515,0-10,4.486-10,10v24.668
			c0,5.514,4.485,10,10,10h24.667c5.514,0,10-4.486,10-10V794c0-5.514-4.486-10-10-10H443.835z"/>
	</g>
	<g>
		<path fill="#A84894" d="M360.537,733.376c0.149-0.014,0.299-0.035,0.446-0.035c1.72-0.004,3.439-0.002,5.159-0.002
			c0.136,0,0.271,0,0.46,0c0-2.066,0-4.104,0-6.188c0.2,0,0.347,0,0.494,0c1.72,0,3.438-0.008,5.159,0.006
			c0.306,0.002,0.406-0.076,0.404-0.396c-0.016-1.783-0.008-3.563-0.008-5.346c0-0.148,0-0.295,0-0.484c2.055,0,4.068,0,6.117,0
			c0-2.047,0-4.049,0-6.111c2.044,0,4.055,0,6.1,0c0-2.064,0-4.07,0-6.076c3.003,0,6.009,0,9.04,0c0,1.027,0,2.059,0,3.088
			c-1.981,0-3.965,0-6.003,0c0,2.041,0,4.053,0,6.104c-2.057,0-4.059,0-6.098,0c0,2.068,0,4.096,0,6.172c-2.038,0-4.038,0-6.089,0
			c0,2.074,0,4.1,0,6.16c-2.056,0-4.059,0-6.113,0c0,0.186,0,0.33,0,0.479c0,1.758,0,3.514-0.001,5.271
			c0,0.148-0.018,0.299-0.028,0.447c-3.003,0-6.008,0-9.04,0C360.537,735.435,360.537,734.406,360.537,733.376z"/>
		<g>
			<path fill="#A84894" d="M389.501,749.662h-24.668c-7.72,0-14-6.281-14-14v-24.668c0-7.719,6.28-14,14-14h24.668
				c7.72,0,14,6.281,14,14v24.668C403.501,743.38,397.219,749.662,389.501,749.662z M364.833,700.994c-5.514,0-10,4.486-10,10
				v24.668c0,5.514,4.486,10,10,10h24.668c5.514,0,10-4.486,10-10v-24.668c0-5.514-4.486-10-10-10H364.833z"/>
		</g>
	</g>
	<g>
		<path fill="#A84894" d="M562.818,875.058c0.148-0.012,0.298-0.033,0.446-0.033c1.72-0.004,3.438-0.002,5.159-0.002
			c0.135,0,0.271,0,0.46,0c0-2.068,0-4.105,0-6.189c0.199,0,0.347,0,0.494,0c1.72,0,3.438-0.006,5.158,0.006
			c0.307,0.004,0.406-0.074,0.404-0.395c-0.016-1.783-0.008-3.564-0.008-5.348c0-0.146,0-0.293,0-0.482c2.055,0,4.068,0,6.117,0
			c0-2.047,0-4.049,0-6.111c2.044,0,4.055,0,6.1,0c0-2.066,0-4.072,0-6.078c3.004,0,6.008,0,9.039,0c0,1.029,0,2.061,0,3.088
			c-1.981,0-3.965,0-6.002,0c0,2.043,0,4.055,0,6.105c-2.057,0-4.059,0-6.099,0c0,2.066,0,4.096,0,6.172c-2.038,0-4.038,0-6.09,0
			c0,2.074,0,4.1,0,6.16c-2.055,0-4.059,0-6.112,0c0,0.184,0,0.33,0,0.477c0,1.758,0.001,3.516-0.001,5.273
			c0,0.148-0.02,0.299-0.028,0.447c-3.003,0-6.008,0-9.039,0C562.818,877.117,562.818,876.087,562.818,875.058z"/>
		<g>
			<path fill="#A84894" d="M591.781,891.343h-24.668c-7.719,0-14-6.279-14-14v-24.666c0-7.721,6.281-14,14-14h24.668
				c7.72,0,14,6.279,14,14v24.666C605.781,885.062,599.501,891.343,591.781,891.343z M567.113,842.677c-5.514,0-10,4.486-10,10
				v24.666c0,5.516,4.486,10,10,10h24.668c5.515,0,10-4.484,10-10v-24.666c0-5.514-4.485-10-10-10H567.113z"/>
		</g>
	</g>
	<g>
		<path fill="#A84894" d="M675.702,238.995c0.148-0.013,0.299-0.035,0.446-0.035c1.72-0.003,3.438-0.001,5.159-0.001
			c0.135,0,0.271,0,0.46,0c0-2.068,0-4.105,0-6.189c0.2,0,0.347,0,0.494,0c1.72,0,3.438-0.007,5.159,0.006
			c0.306,0.003,0.405-0.075,0.403-0.396c-0.016-1.782-0.008-3.563-0.008-5.346c0-0.147,0-0.294,0-0.484c2.055,0,4.068,0,6.117,0
			c0-2.047,0-4.049,0-6.111c2.044,0,4.055,0,6.1,0c0-2.065,0-4.071,0-6.077c3.004,0,6.009,0,9.039,0c0,1.029,0,2.059,0,3.088
			c-1.98,0-3.965,0-6.002,0c0,2.042,0,4.053,0,6.104c-2.057,0-4.059,0-6.099,0c0,2.068,0,4.096,0,6.173c-2.038,0-4.038,0-6.089,0
			c0,2.073,0,4.099,0,6.16c-2.056,0-4.06,0-6.113,0c0,0.184,0,0.33,0,0.477c0,1.758,0.001,3.515-0.001,5.272
			c0,0.149-0.019,0.299-0.028,0.448c-3.003,0-6.008,0-9.039,0C675.702,241.053,675.702,240.024,675.702,238.995z"/>
		<g>
			<path fill="#A84894" d="M704.665,255.28h-24.668c-7.719,0-14-6.28-14-14v-24.667c0-7.72,6.281-14,14-14h24.668
				c7.72,0,14,6.28,14,14v24.667C718.665,249,712.385,255.28,704.665,255.28z M679.997,206.613c-5.514,0-10,4.486-10,10v24.667
				c0,5.514,4.486,10,10,10h24.668c5.515,0,10-4.486,10-10v-24.667c0-5.514-4.485-10-10-10H679.997z"/>
		</g>
	</g>
</g>
</svg>
